#N canvas 609 722 1280 642 12;
#X obj 14 -302 inlet;
#X obj 14 -24 spigot;
#X obj 53 -46 tgl 13 0 empty empty empty 17 7 0 10 -262144 -1 -1 0
1;
#X obj 14 -229 t a b, f 6;
#N canvas 345 29 1280 990 id-state 0;
#X obj 412 309 cnv 15 108 126 empty empty empty 20 12 0 14 -260654
-66577 0;
#X obj 88 329 metro 1000;
#X obj 88 354 cup;
#X floatatom 127 373 5 0 0 0 - - #0-count_num, f 5;
#X obj 118 314 tgl 15 0 \$0-count-state \$0-count empty 17 7 0 10 -262144
-1 -1 0 1;
#X obj 88 185 bng 15 250 50 0 empty empty empty 17 7 0 10 -262144 -1
-1;
#X msg 88 245 0;
#X obj 88 423 sel 10;
#X obj 88 209 t b b, f 14;
#X obj 223 299 bng 15 250 50 0 empty empty empty 17 7 0 10 -262144
-1 -1;
#X obj 223 229 spigot, f 7;
#X obj 223 258 t b b, f 15;
#X obj 325 214 tgl 15 0 empty empty empty 16 4 0 10 -262144 -1 -1 1
1;
#X obj 374 194 loadbang;
#X obj 88 155 inlet;
#X obj 418 405 nbx 2 20 -1e+37 1e+37 0 0 empty \$0-count_num Counter
33 9 0 10 -262144 -1 -1 3 256 0;
#X obj 418 314 tgl 20 0 empty empty Can\ start? 22 11 0 10 -262144
-1 -1 1 1;
#X obj 418 344 tgl 20 0 empty empty Initialized? 22 10 0 10 -262144
-1 -1 0 1;
#X obj 418 374 tgl 20 0 empty \$0-count-state Count? 22 10 0 10 -262144
-1 -1 0 1;
#X obj 532 308 cnv 15 108 133 empty empty empty 20 12 0 14 -260654
-66577 0;
#X obj 538 404 nbx 5 20 -1e+37 1e+37 0 0 \$0-change_limit empty Change\ limit!
23 24 0 10 -262144 -1 -1 24 256 0;
#X obj 538 343 bng 20 250 50 0 empty empty Start! 22 10 0 10 -262144
-1 -1;
#X obj 538 373 bng 20 250 50 0 \$0-count empty Do/Not\ count! 22 10
0 10 -262144 -1 -1;
#X floatatom 127 399 5 0 0 0 - #0-change_limit -, f 5;
#X obj 259 443 outlet;
#X obj 223 363 outlet;
#X msg 206 91 1;
#X msg 236 118 0;
#X obj 538 313 bng 20 250 50 0 empty empty Reset! 22 10 0 10 -262144
-1 -1;
#X obj 206 28 t b b;
#X msg 174 314 1;
#X obj 351 -9 inlet;
#X obj 351 64 bng 15 250 50 0 empty empty empty 17 7 0 10 -262144 -1
-1;
#X obj 382 64 bng 15 250 50 0 empty empty empty 17 7 0 10 -262144 -1
-1;
#X obj 413 64 bng 15 250 50 0 empty empty empty 17 7 0 10 -262144 -1
-1;
#X obj 442 64 t b b;
#X obj 488 64 t b b;
#X obj 545 62 t b b;
#X obj 595 62 t b b b;
#X msg 661 65 0;
#X obj 351 35 sel oo1 o10 100 o11 101 110 111 cant-start can-start
, f 62;
#X msg 722 62 1;
#X obj 231 392 outlet;
#X connect 1 0 2 0;
#X connect 2 0 3 0;
#X connect 2 0 7 0;
#X connect 4 0 1 0;
#X connect 5 0 8 0;
#X connect 6 0 2 0;
#X connect 7 0 24 0;
#X connect 8 0 6 0;
#X connect 8 1 10 0;
#X connect 9 0 17 0;
#X connect 9 0 25 0;
#X connect 9 0 30 0;
#X connect 10 0 11 0;
#X connect 11 0 9 0;
#X connect 11 1 12 0;
#X connect 12 0 10 1;
#X connect 12 0 16 0;
#X connect 13 0 12 0;
#X connect 14 0 5 0;
#X connect 21 0 5 0;
#X connect 23 0 7 1;
#X connect 26 0 12 0;
#X connect 27 0 4 0;
#X connect 27 0 17 0;
#X connect 27 0 42 0;
#X connect 28 0 29 0;
#X connect 29 0 26 0;
#X connect 29 1 27 0;
#X connect 30 0 4 0;
#X connect 31 0 40 0;
#X connect 32 0 22 0;
#X connect 33 0 21 0;
#X connect 34 0 28 0;
#X connect 35 0 22 0;
#X connect 35 1 21 0;
#X connect 36 0 28 0;
#X connect 36 1 22 0;
#X connect 37 0 21 0;
#X connect 37 1 28 0;
#X connect 38 0 21 0;
#X connect 38 1 28 0;
#X connect 38 2 22 0;
#X connect 39 0 12 0;
#X connect 40 0 32 0;
#X connect 40 1 33 0;
#X connect 40 2 34 0;
#X connect 40 3 35 0;
#X connect 40 4 36 0;
#X connect 40 5 37 0;
#X connect 40 6 38 0;
#X connect 40 7 39 0;
#X connect 40 8 41 0;
#X connect 41 0 12 0;
#X coords 0 -1 1 1 250 163 1 401 289;
#X restore 244 -209 pd id-state;
#X obj 487 -37 outlet;
#X obj 14 5 outlet;
#X obj 244 -37 outlet;
#X obj 487 -302 inlet;
#X connect 0 0 3 0;
#X connect 1 0 6 0;
#X connect 2 0 1 1;
#X connect 3 0 1 0;
#X connect 3 1 4 0;
#X connect 4 0 2 0;
#X connect 4 0 7 0;
#X connect 4 1 2 0;
#X connect 4 2 5 0;
#X connect 8 0 4 1;
#X coords 0 -1 1 1 260 224 1 241 -267;
