#N canvas 0 59 1920 983 12;
#X obj 42 35 grid grid3 200 0 199 200 0 199 1 1 1 10 10 246 29;
#X obj 42 240 / 199;
#X obj 236 240 / 199;
#X floatatom 42 265 5 0 0 0 - - -;
#X floatatom 236 265 5 0 0 0 - - -;
#X obj 42 289 s x;
#X obj 236 289 s y;
#X obj 502 254 r x;
#X obj 597 254 r y;
#X floatatom 502 304 5 0 0 0 - - -;
#X floatatom 597 304 5 0 0 0 - - -;
#X obj 502 342 expr $f1 + $f2;
#X floatatom 502 367 5 0 0 0 - - bot_left;
#X obj 502 279 / 4;
#X obj 597 279 / 4;
#X obj 877 40 r x;
#X obj 1028 37 r y;
#X floatatom 877 90 5 0 0 0 - - -;
#X floatatom 1028 87 5 0 0 0 - - -;
#X floatatom 877 193 5 0 0 0 - - top_right;
#X obj 877 65 / 4;
#X obj 1028 62 / 4;
#X obj 877 168 expr 0.5 - ($f1 + $f2);
#X obj 505 47 r x;
#X obj 663 48 r y;
#X floatatom 505 97 5 0 0 0 - - -;
#X floatatom 663 98 5 0 0 0 - - -;
#X floatatom 505 190 5 0 0 0 - - top_left;
#X obj 505 72 / 4;
#X obj 663 73 / 4;
#X obj 505 165 expr $f1 + (0.25 - $f2);
#X obj 877 238 r x;
#X obj 1035 237 r y;
#X floatatom 877 288 5 0 0 0 - - -;
#X floatatom 1035 287 5 0 0 0 - - -;
#X floatatom 877 381 5 0 0 0 - - bot_right;
#X obj 877 263 / 4;
#X obj 1035 262 / 4;
#X obj 877 356 expr (0.25 - $f1) + $f2;
#X floatatom 501 522 5 0 0 0 - top_left -;
#X floatatom 680 520 5 0 0 0 - top_right -;
#X floatatom 596 522 5 0 0 0 - bot_left -;
#X floatatom 775 519 5 0 0 0 - bot_right -;
#X floatatom 501 602 5 0 0 0 - - -;
#X obj 501 577 expr $f1 + $f2;
#X floatatom 680 602 5 0 0 0 - - -;
#X obj 680 577 expr $f1 + $f2;
#X text 503 491 left;
#X text 680 485 right;
#X connect 0 0 1 0;
#X connect 0 1 2 0;
#X connect 1 0 3 0;
#X connect 2 0 4 0;
#X connect 3 0 5 0;
#X connect 4 0 6 0;
#X connect 7 0 13 0;
#X connect 8 0 14 0;
#X connect 9 0 11 0;
#X connect 10 0 11 1;
#X connect 11 0 12 0;
#X connect 13 0 9 0;
#X connect 14 0 10 0;
#X connect 15 0 20 0;
#X connect 16 0 21 0;
#X connect 17 0 22 0;
#X connect 18 0 22 1;
#X connect 20 0 17 0;
#X connect 21 0 18 0;
#X connect 22 0 19 0;
#X connect 23 0 28 0;
#X connect 24 0 29 0;
#X connect 25 0 30 0;
#X connect 26 0 30 1;
#X connect 28 0 25 0;
#X connect 29 0 26 0;
#X connect 30 0 27 0;
#X connect 31 0 36 0;
#X connect 32 0 37 0;
#X connect 33 0 38 0;
#X connect 34 0 38 1;
#X connect 36 0 33 0;
#X connect 37 0 34 0;
#X connect 38 0 35 0;
#X connect 39 0 44 0;
#X connect 40 0 46 0;
#X connect 41 0 44 1;
#X connect 42 0 46 1;
#X connect 44 0 43 0;
#X connect 46 0 45 0;
