#N canvas 0 29 1920 990 12;
#X obj 12 234 r x;
#X obj 107 234 r y;
#X floatatom 12 284 5 0 0 0 - - -, f 5;
#X floatatom 107 284 5 0 0 0 - - -, f 5;
#X obj 12 322 expr $f1 + $f2;
#X floatatom 12 347 5 0 0 0 - - bot_left, f 5;
#X obj 12 259 / 4;
#X obj 107 259 / 4;
#X obj 387 20 r x;
#X obj 538 17 r y;
#X floatatom 387 70 5 0 0 0 - - -, f 5;
#X floatatom 538 67 5 0 0 0 - - -, f 5;
#X floatatom 387 173 5 0 0 0 - - top_right, f 5;
#X obj 387 45 / 4;
#X obj 538 42 / 4;
#X obj 387 148 expr 0.5 - ($f1 + $f2);
#X obj 15 27 r x;
#X obj 173 28 r y;
#X floatatom 15 77 5 0 0 0 - - -, f 5;
#X floatatom 173 78 5 0 0 0 - - -, f 5;
#X floatatom 15 170 5 0 0 0 - - top_left, f 5;
#X obj 15 52 / 4;
#X obj 173 53 / 4;
#X obj 15 145 expr $f1 + (0.25 - $f2);
#X obj 387 218 r x;
#X obj 545 217 r y;
#X floatatom 387 268 5 0 0 0 - - -, f 5;
#X floatatom 545 267 5 0 0 0 - - -, f 5;
#X floatatom 387 361 5 0 0 0 - - bot_right, f 5;
#X obj 387 243 / 4;
#X obj 545 242 / 4;
#X obj 387 336 expr (0.25 - $f1) + $f2;
#X floatatom 11 502 5 0 0 0 - top_left -, f 5;
#X floatatom 190 500 5 0 0 0 - top_right -, f 5;
#X floatatom 106 502 5 0 0 0 - bot_left -, f 5;
#X floatatom 285 499 5 0 0 0 - bot_right -, f 5;
#X floatatom 11 582 5 0 0 0 - - -, f 5;
#X obj 11 557 expr $f1 + $f2;
#X floatatom 190 582 5 0 0 0 - - -, f 5;
#X obj 190 557 expr $f1 + $f2;
#X text 13 471 left;
#X text 190 465 right;
#X obj 11 610 outlet;
#X obj 190 610 outlet;
#X connect 0 0 6 0;
#X connect 1 0 7 0;
#X connect 2 0 4 0;
#X connect 3 0 4 1;
#X connect 4 0 5 0;
#X connect 6 0 2 0;
#X connect 7 0 3 0;
#X connect 8 0 13 0;
#X connect 9 0 14 0;
#X connect 10 0 15 0;
#X connect 11 0 15 1;
#X connect 13 0 10 0;
#X connect 14 0 11 0;
#X connect 15 0 12 0;
#X connect 16 0 21 0;
#X connect 17 0 22 0;
#X connect 18 0 23 0;
#X connect 19 0 23 1;
#X connect 21 0 18 0;
#X connect 22 0 19 0;
#X connect 23 0 20 0;
#X connect 24 0 29 0;
#X connect 25 0 30 0;
#X connect 26 0 31 0;
#X connect 27 0 31 1;
#X connect 29 0 26 0;
#X connect 30 0 27 0;
#X connect 31 0 28 0;
#X connect 32 0 37 0;
#X connect 33 0 39 0;
#X connect 34 0 37 1;
#X connect 35 0 39 1;
#X connect 36 0 42 0;
#X connect 37 0 36 0;
#X connect 38 0 43 0;
#X connect 39 0 38 0;
