#N canvas 0 59 1366 673 12;
#X obj 34 608 output~;
#X obj 34 458 catch~;
#X obj 246 107 s reset-all;
#X obj 246 39 bng 25 250 50 0 empty empty empty 17 7 0 10 -261234 -1
-1;
#X obj 246 69 t b b, f 21;
#X obj 390 107 t b b, f 16;
#X msg 390 136 symbol 100;
#X obj 390 165 s id1;
#X obj 499 194 s id2;
#X msg 499 136 symbol 100 \, symbol cant-start;
#X obj 558 194 s id3;
#X obj 129 472 audio_pan;
#X obj 34 517 *~;
#X obj 77 517 *~;
#N canvas 86 90 1280 642 effect 0;
#X obj 248 266 expr~ ($v1 * $f3) + ($v2 * $f4), f 38;
#X obj 248 295 throw~;
#X obj 423 60 r pan-AB;
#X obj 423 89 t f f, f 13;
#X obj 423 118 expr 1 - $f1;
#X obj 423 158 vsl 15 60 0 1 0 0 empty empty empty 0 -9 0 10 -262144
-1 -1 0 1;
#X obj 511 158 vsl 15 60 0 1 0 0 empty empty empty 0 -9 0 10 -262144
-1 -1 5900 1;
#X obj 251 130 freeverb~;
#X obj 328 130 freeverb~;
#X obj 561 89 t f f, f 22;
#X floatatom 561 147 5 0 0 0 - - -;
#X floatatom 712 147 5 0 0 0 - - -;
#X obj 561 118 expr 1 - ($f1 / 2);
#X msg 561 175 dry \$1;
#X msg 712 175 wet \$1;
#X obj 561 60 r filter;
#X obj 561 204 s dry;
#X obj 712 204 s wet;
#X obj 257 51 r dry;
#X obj 257 80 t a a;
#X obj 324 79 t a a;
#X obj 324 50 r wet;
#X obj 24 110 inlet~;
#X obj 74 110 inlet~;
#X obj 24 180 cnv 15 151 106 empty empty empty 20 12 0 14 -231847 -66577
0;
#X obj 30 209 hsl 128 15 0 1 0 0 pan-AB pan-AB empty -2 -8 0 10 -262144
-1 -1 12700 1;
#X obj 30 259 hsl 128 15 0 1 0 0 filter filter empty -2 -8 0 10 -262144
-1 -1 0 1;
#X text 28 183 pan-AB;
#X text 28 233 filter, f 10;
#X connect 0 0 1 0;
#X connect 2 0 3 0;
#X connect 3 0 4 0;
#X connect 3 1 6 0;
#X connect 4 0 5 0;
#X connect 5 0 0 2;
#X connect 6 0 0 3;
#X connect 7 0 0 0;
#X connect 7 1 0 0;
#X connect 8 0 0 1;
#X connect 8 1 0 1;
#X connect 9 0 12 0;
#X connect 9 1 11 0;
#X connect 10 0 13 0;
#X connect 11 0 14 0;
#X connect 12 0 10 0;
#X connect 13 0 16 0;
#X connect 14 0 17 0;
#X connect 15 0 9 0;
#X connect 18 0 19 0;
#X connect 19 0 7 0;
#X connect 19 1 8 0;
#X connect 20 0 7 0;
#X connect 20 1 8 0;
#X connect 21 0 20 0;
#X connect 22 0 7 0;
#X connect 22 0 7 1;
#X connect 23 0 8 0;
#X connect 23 0 8 1;
#X restore 23 311 pd effect;
#X f 10;
#N canvas 404 213 872 600 ambient 0;
#X obj 35 141 readsf~;
#X obj 81 98 bng 15 250 50 0 empty empty empty 17 7 0 10 -262144 -1
-1;
#X msg 35 113 open ./ambiente/A-ambiente.wav \, start;
#X obj 123 181 readsf~;
#X obj 169 138 bng 15 250 50 0 empty empty empty 17 7 0 10 -262144
-1 -1;
#X msg 123 153 open ./ambiente/B-ambiente.wav \, start;
#X obj 81 33 t b b, f 13;
#X msg 35 40 stop;
#X obj 35 71 t a a, f 13;
#X obj 35 -22 r reset-all;
#X obj 81 4 r id1-loadbang;
#X obj 35 170 outlet~;
#X obj 123 210 outlet~;
#X connect 0 0 11 0;
#X connect 0 1 1 0;
#X connect 1 0 2 0;
#X connect 2 0 0 0;
#X connect 3 0 12 0;
#X connect 3 1 4 0;
#X connect 4 0 5 0;
#X connect 5 0 3 0;
#X connect 6 0 1 0;
#X connect 6 1 4 0;
#X connect 7 0 8 0;
#X connect 8 0 0 0;
#X connect 8 1 3 0;
#X connect 9 0 7 0;
#X connect 10 0 6 0;
#X restore 23 278 pd ambient;
#N canvas 0 29 1920 990 sequences 0;
#X obj 14 151 readsf~;
#X obj 60 108 bng 15 250 50 0 empty empty empty 17 7 0 10 -262144 -1
-1;
#X msg 14 123 open ./instrumento_fiducial/1-IF.wav \, start;
#X msg 14 6 stop;
#X obj 14 36 t a a, f 99;
#X obj 14 -20 r reset-all;
#X obj 704 151 readsf~;
#X obj 750 108 bng 15 250 50 0 empty empty empty 17 7 0 10 -262144
-1 -1;
#X msg 704 123 open ./instrumento_fiducial/2-IF.wav \, start;
#X obj 14 68 r id2-loadbang;
#X obj 704 68 r id3-loadbang;
#X obj 14 180 outlet~;
#X obj 704 180 outlet~, f 14;
#X connect 0 0 11 0;
#X connect 0 1 1 0;
#X connect 1 0 2 0;
#X connect 2 0 0 0;
#X connect 3 0 4 0;
#X connect 4 0 0 0;
#X connect 4 1 6 0;
#X connect 5 0 3 0;
#X connect 6 0 12 0;
#X connect 6 1 7 0;
#X connect 7 0 8 0;
#X connect 8 0 6 0;
#X connect 9 0 2 0;
#X connect 10 0 8 0;
#X restore 106 278 pd sequences;
#X f 14;
#N canvas 86 74 1280 658 seq-effects 1;
#X obj 11 240 throw~;
#X floatatom 147 37 5 0 1 0 2-rot 2-rot -;
#X obj 13 142 freeverb~;
#X msg 147 121 wet \$1;
#X obj 147 65 t f f, f 13;
#X floatatom 686 33 5 0 1 0 3-rot 3-rot -;
#X obj 686 61 t f f, f 13;
#X msg 235 121 dry \$1;
#X obj 549 236 throw~;
#X obj 551 138 freeverb~;
#X msg 684 117 wet \$1;
#X msg 772 117 dry \$1;
#X msg 372 121 roomsize \$1;
#X obj 372 87 hsl 128 15 0 1 0 0 empty empty empty -2 -8 0 10 -262144
-1 -1 0 1;
#X obj 373 57 r filter;
#X obj 235 92 expr 1 - $f1;
#X msg 905 117 roomsize \$1;
#X obj 905 83 hsl 128 15 0 1 0 0 empty empty empty -2 -8 0 10 -262144
-1 -1 0 1;
#X obj 906 53 r filter;
#X obj 772 88 expr 1 - $f1;
#X obj 13 93 inlet~;
#X obj 551 87 inlet~;
#X obj 14 315 cnv 15 154 103 empty empty empty 20 12 0 14 -233017 -66577
0;
#X obj 18 330 hsl 128 15 0 1 0 0 2-rot 2-rot 2-rot 0 -8 0 10 -260888
-1 -1 0 1;
#X obj 18 370 hsl 128 15 0 1 0 0 3-rot 3-rot 3-rot 0 -8 0 10 -260888
-1 -1 0 1;
#X connect 1 0 4 0;
#X connect 2 0 0 0;
#X connect 2 1 0 0;
#X connect 3 0 2 0;
#X connect 4 0 3 0;
#X connect 4 1 15 0;
#X connect 5 0 6 0;
#X connect 6 0 10 0;
#X connect 6 1 19 0;
#X connect 7 0 2 0;
#X connect 9 0 8 0;
#X connect 9 1 8 0;
#X connect 10 0 9 0;
#X connect 11 0 9 0;
#X connect 12 0 2 0;
#X connect 13 0 12 0;
#X connect 14 0 13 0;
#X connect 15 0 7 0;
#X connect 16 0 9 0;
#X connect 17 0 16 0;
#X connect 18 0 17 0;
#X connect 19 0 11 0;
#X connect 20 0 2 0;
#X connect 20 0 2 1;
#X connect 21 0 9 0;
#X connect 21 0 9 1;
#X restore 106 312 pd seq-effects;
#N canvas 0 59 1366 673 position 0;
#X obj 260 -12 grid grid1 200 0 199 200 0 199 1 1 1 10 10 2215 347
;
#X obj 260 197 / 199;
#X obj 453 197 / 199;
#X floatatom 260 226 5 0 0 0 - - -;
#X floatatom 453 226 5 0 0 0 - - -;
#X obj 260 284 s pan-AB;
#X obj 453 284 s filter;
#X obj 260 254 t f f, f 12;
#X obj 341 283 s x;
#X obj 453 254 t f f, f 12;
#X obj 534 283 s y;
#X obj 260 -212 unpack f f;
#X floatatom 260 -146 5 0 0 0 - - -;
#X floatatom 327 -149 5 0 0 0 - - -;
#X obj 260 -103 pack f f, f 10;
#X msg 260 -74 goto \$1 \$2;
#X msg 376 -110 bang;
#X obj 260 -181 * 199;
#X obj 327 -181 * 199;
#X obj 260 -237 r xy-pos;
#X connect 0 0 1 0;
#X connect 0 1 2 0;
#X connect 1 0 3 0;
#X connect 2 0 4 0;
#X connect 3 0 7 0;
#X connect 4 0 9 0;
#X connect 7 0 5 0;
#X connect 7 1 8 0;
#X connect 9 0 6 0;
#X connect 9 1 10 0;
#X connect 11 0 17 0;
#X connect 11 1 18 0;
#X connect 12 0 14 0;
#X connect 13 0 14 1;
#X connect 13 0 16 0;
#X connect 14 0 15 0;
#X connect 15 0 0 0;
#X connect 16 0 12 0;
#X connect 17 0 12 0;
#X connect 18 0 13 0;
#X connect 19 0 11 0;
#X coords 0 -1 1 1 204 227 1 258 -36;
#X restore 22 38 pd position;
#N canvas 177 89 1060 519 saved_states 0;
#X floatatom 21 238 5 0 0 0 - - -;
#X floatatom 89 238 5 0 0 0 - - -;
#X obj 21 140 r spacial-state;
#X obj 21 209 unpack f f f, f 20;
#X floatatom 158 238 5 0 0 0 - - -;
#X obj 21 169 spigot;
#X obj 177 154 tgl 15 0 empty empty empty 17 7 0 10 -262144 -1 -1 1
1;
#X obj 177 169 loadbang;
#X obj 182 87 t b b;
#X obj 393 87 t b b;
#X obj 733 57 t b b;
#X floatatom 252 239 5 0 0 0 - - -;
#X floatatom 320 239 5 0 0 0 - - -;
#X obj 252 141 r spacial-state;
#X obj 252 210 unpack f f f, f 20;
#X floatatom 389 239 5 0 0 0 - - -;
#X obj 252 170 spigot;
#X obj 408 155 tgl 15 0 empty empty empty 17 7 0 10 -262144 -1 -1 0
1;
#X floatatom 489 238 5 0 0 0 - - -;
#X floatatom 557 238 5 0 0 0 - - -;
#X obj 489 140 r spacial-state;
#X obj 489 209 unpack f f f, f 20;
#X floatatom 626 238 5 0 0 0 - - -;
#X obj 489 169 spigot;
#X obj 645 154 tgl 15 0 empty empty empty 17 7 0 10 -262144 -1 -1 0
1;
#X floatatom 722 240 5 0 0 0 - - -;
#X floatatom 790 240 5 0 0 0 - - -;
#X obj 722 142 r spacial-state;
#X obj 722 211 unpack f f f, f 20;
#X floatatom 859 240 5 0 0 0 - - -;
#X obj 722 171 spigot;
#X obj 878 156 tgl 15 0 empty empty empty 17 7 0 10 -262144 -1 -1 0
1;
#X obj 183 7 hradio 15 0 0 4 empty empty empty 0 -8 0 10 -262144 -1
-1 3;
#X msg 270 454 0;
#X obj 183 40 sel 1 2 3 0;
#X obj 238 371 t b b;
#X msg 238 396 1;
#X connect 2 0 5 0;
#X connect 3 0 0 0;
#X connect 3 1 1 0;
#X connect 3 2 4 0;
#X connect 5 0 3 0;
#X connect 6 0 5 1;
#X connect 7 0 6 0;
#X connect 8 0 6 0;
#X connect 8 1 17 0;
#X connect 9 0 17 0;
#X connect 9 1 24 0;
#X connect 10 0 24 0;
#X connect 10 1 31 0;
#X connect 13 0 16 0;
#X connect 14 0 11 0;
#X connect 14 1 12 0;
#X connect 14 2 15 0;
#X connect 16 0 14 0;
#X connect 17 0 16 1;
#X connect 20 0 23 0;
#X connect 21 0 18 0;
#X connect 21 1 19 0;
#X connect 21 2 22 0;
#X connect 23 0 21 0;
#X connect 24 0 23 1;
#X connect 27 0 30 0;
#X connect 28 0 25 0;
#X connect 28 1 26 0;
#X connect 28 2 29 0;
#X connect 30 0 28 0;
#X connect 31 0 30 1;
#X connect 32 0 34 0;
#X connect 33 0 17 0;
#X connect 33 0 24 0;
#X connect 33 0 31 0;
#X connect 34 0 8 0;
#X connect 34 1 9 0;
#X connect 34 2 10 0;
#X connect 34 3 35 0;
#X connect 35 0 36 0;
#X connect 35 1 33 0;
#X connect 36 0 6 0;
#X restore 116 13 pd saved_states;
#X obj 500 602 dac~ 1 2 3 4, f 18;
#X obj 499 165 t a a a a, f 26;
#X obj 678 194 s id5;
#X obj 618 194 s id4;
#N canvas 0 59 1366 673 aruco_ids 0;
#X obj 4 6 mrpeach/udpreceive 9007;
#X obj 4 37 mrpeach/unpackOSC;
#X obj 4 70 mrpeach/routeOSC /id;
#N canvas 0 59 1366 673 value-routing 0;
#X obj 46 40 inlet;
#X floatatom 46 325 5 0 0 0 - - -;
#X floatatom 127 325 5 0 0 0 - - -;
#X obj 46 275 unpack f f, f 12;
#X obj 46 110 mrpeach/routeOSC /pos /rot, f 47;
#X floatatom 209 185 5 0 0 0 - - -;
#X obj 209 215 abs;
#X obj 209 244 / 3.141;
#X obj 406 40 inlet;
#X floatatom 406 325 5 0 0 0 - - -;
#X floatatom 487 325 5 0 0 0 - - -;
#X obj 406 275 unpack f f, f 12;
#X obj 406 110 mrpeach/routeOSC /pos /rot, f 47;
#X floatatom 569 185 5 0 0 0 - - -;
#X obj 569 215 abs;
#X obj 569 244 / 3.141;
#X obj 766 40 inlet;
#X obj 766 110 mrpeach/routeOSC /pos /rot, f 47;
#X obj 487 443 t b f;
#X obj 406 473 pack f f f, f 23;
#X obj 569 273 t b f;
#X obj 135 21 cnv 15 140 60 empty empty empty 20 12 0 14 -233017 -66577
0;
#X floatatom 229 31 5 0 0 0 X-resolution - x-res;
#X floatatom 229 61 5 0 0 0 Y-resolution - y-res;
#X obj 46 349 / 640;
#X obj 127 349 / 480;
#X obj 406 411 / 640;
#X obj 487 410 / 480;
#X floatatom 78 372 5 0 0 0 - - -;
#X floatatom 157 373 5 0 0 0 - - -;
#X floatatom 438 382 5 0 0 0 - x-res -;
#X floatatom 519 378 5 0 0 0 - y-res -;
#X floatatom 766 325 5 0 0 0 - - -;
#X floatatom 847 325 5 0 0 0 - - -;
#X obj 766 275 unpack f f, f 12;
#X floatatom 929 185 5 0 0 0 - - -;
#X obj 929 215 abs;
#X obj 929 244 / 3.141;
#X obj 847 443 t b f;
#X obj 766 473 pack f f f, f 23;
#X obj 929 273 t b f;
#X obj 766 411 / 640;
#X obj 847 410 / 480;
#X floatatom 798 382 5 0 0 0 - x-res -;
#X floatatom 879 378 5 0 0 0 - y-res -;
#X floatatom 46 413 5 0 0 0 - - -;
#X floatatom 127 413 5 0 0 0 - - -;
#X obj 46 437 pack f f, f 12;
#X obj 46 462 s xy-pos;
#X obj 406 502 s spacial-state1;
#X obj 766 502 s spacial-state2;
#X obj 996 610 inlet;
#X floatatom 406 845 5 0 0 0 - - -;
#X floatatom 487 845 5 0 0 0 - - -;
#X obj 406 795 unpack f f, f 12;
#X obj 406 630 mrpeach/routeOSC /pos /rot, f 47;
#X floatatom 569 705 5 0 0 0 - - -;
#X obj 569 735 abs;
#X obj 569 764 / 3.141;
#X obj 1061 610 inlet;
#X obj 766 630 mrpeach/routeOSC /pos /rot, f 47;
#X obj 487 963 t b f;
#X obj 406 993 pack f f f, f 23;
#X obj 569 793 t b f;
#X obj 406 931 / 640;
#X obj 487 930 / 480;
#X floatatom 438 902 5 0 0 0 - x-res -;
#X floatatom 519 898 5 0 0 0 - y-res -;
#X floatatom 766 845 5 0 0 0 - - -;
#X floatatom 847 845 5 0 0 0 - - -;
#X obj 766 795 unpack f f, f 12;
#X floatatom 929 705 5 0 0 0 - - -;
#X obj 929 735 abs;
#X obj 929 764 / 3.141;
#X obj 847 963 t b f;
#X obj 766 993 pack f f f, f 23;
#X obj 929 793 t b f;
#X obj 766 931 / 640;
#X obj 847 930 / 480;
#X floatatom 798 902 5 0 0 0 - x-res -;
#X floatatom 879 898 5 0 0 0 - y-res -;
#X obj 406 1022 s spacial-state3;
#X obj 766 1022 s spacial-state4;
#X connect 0 0 4 0;
#X connect 1 0 24 0;
#X connect 2 0 25 0;
#X connect 3 0 1 0;
#X connect 3 1 2 0;
#X connect 4 0 3 0;
#X connect 4 1 5 0;
#X connect 5 0 6 0;
#X connect 6 0 7 0;
#X connect 8 0 12 0;
#X connect 9 0 26 0;
#X connect 10 0 27 0;
#X connect 11 0 9 0;
#X connect 11 1 10 0;
#X connect 12 0 11 0;
#X connect 12 1 13 0;
#X connect 13 0 14 0;
#X connect 14 0 15 0;
#X connect 15 0 20 0;
#X connect 16 0 17 0;
#X connect 17 0 34 0;
#X connect 17 1 35 0;
#X connect 18 0 19 0;
#X connect 18 1 19 1;
#X connect 19 0 49 0;
#X connect 20 0 19 0;
#X connect 20 1 19 2;
#X connect 24 0 45 0;
#X connect 25 0 46 0;
#X connect 26 0 19 0;
#X connect 27 0 18 0;
#X connect 28 0 24 1;
#X connect 29 0 25 1;
#X connect 30 0 26 1;
#X connect 31 0 27 1;
#X connect 32 0 41 0;
#X connect 33 0 42 0;
#X connect 34 0 32 0;
#X connect 34 1 33 0;
#X connect 35 0 36 0;
#X connect 36 0 37 0;
#X connect 37 0 40 0;
#X connect 38 0 39 0;
#X connect 38 1 39 1;
#X connect 39 0 50 0;
#X connect 40 0 39 0;
#X connect 40 1 39 2;
#X connect 41 0 39 0;
#X connect 42 0 38 0;
#X connect 43 0 41 1;
#X connect 44 0 42 1;
#X connect 45 0 47 0;
#X connect 46 0 47 1;
#X connect 47 0 48 0;
#X connect 51 0 55 0;
#X connect 52 0 64 0;
#X connect 53 0 65 0;
#X connect 54 0 52 0;
#X connect 54 1 53 0;
#X connect 55 0 54 0;
#X connect 55 1 56 0;
#X connect 56 0 57 0;
#X connect 57 0 58 0;
#X connect 58 0 63 0;
#X connect 59 0 60 0;
#X connect 60 0 70 0;
#X connect 60 1 71 0;
#X connect 61 0 62 0;
#X connect 61 1 62 1;
#X connect 62 0 81 0;
#X connect 63 0 62 0;
#X connect 63 1 62 2;
#X connect 64 0 62 0;
#X connect 65 0 61 0;
#X connect 66 0 64 1;
#X connect 67 0 65 1;
#X connect 68 0 77 0;
#X connect 69 0 78 0;
#X connect 70 0 68 0;
#X connect 70 1 69 0;
#X connect 71 0 72 0;
#X connect 72 0 73 0;
#X connect 73 0 76 0;
#X connect 74 0 75 0;
#X connect 74 1 75 1;
#X connect 75 0 82 0;
#X connect 76 0 75 0;
#X connect 76 1 75 2;
#X connect 77 0 75 0;
#X connect 78 0 74 0;
#X connect 79 0 77 1;
#X connect 80 0 78 1;
#X restore 4 647 pd value-routing;
#X f 226;
#X obj 4 185 aruco, f 7;
#X obj 130 191 bng 31 250 50 0 id1-loadbang empty ID1-LOADBANG 34 22
0 10 -159680 -1 -1;
#X obj 233 410 bng 15 250 50 0 start-stage-2 empty To 17 7 0 10 -262144
-1 -1;
#X obj 398 184 aruco, f 7;
#X obj 792 184 aruco, f 7;
#X obj 627 408 bng 15 250 50 0 start-stage-3 empty To 17 7 0 10 -262144
-1 -1;
#X obj 1020 408 bng 15 250 50 0 start-stage-3 empty To 17 7 0 10 -262144
-1 -1;
#X obj 524 191 bng 31 250 50 0 id2-loadbang empty ID2-LOADBANG 34 22
0 10 -159680 -1 -1;
#X obj 233 454 t b b;
#X obj 225 165 r id1;
#X obj 619 164 r id2;
#X obj 265 512 s id1;
#X obj 1012 164 r id3;
#X obj 7 837 bng 15 250 50 0 empty empty empty 17 7 0 10 -262144 -1
-1;
#X obj 7 803 loadbang;
#X msg 7 861 symbol cant-start;
#X msg 233 537 symbol 100;
#X obj 233 595 s id2;
#X obj 285 595 s id3;
#X obj 5 685 r id2-loadbang;
#X msg 5 714 symbol cant-start;
#X msg 264 483 symbol 100 \, symbol cant-start;
#X obj 627 616 s id1;
#X msg 627 592 symbol can-start \, symbol o11;
#X msg 757 484 \; id2 symbol 100;
#X obj 692 493 del 1;
#X msg 692 528 \; id2 symbol o11;
#X obj 627 453 t b b b, f 19;
#X obj 1020 616 s id1;
#X msg 1020 592 symbol can-start \, symbol o11;
#X obj 1085 493 del 1;
#X obj 1020 453 t b b b, f 19;
#X msg 1085 528 \; id3 symbol o11;
#X msg 1150 484 \; id3 symbol 100;
#X obj 4 95 mrpeach/routeOSC /1 /2 /3 /4 /5, f 282;
#X obj 1186 184 aruco, f 7;
#X obj 1414 408 bng 15 250 50 0 start-stage-3 empty To 17 7 0 10 -262144
-1 -1;
#X obj 1414 616 s id1;
#X msg 1414 592 symbol can-start \, symbol o11;
#X obj 1479 493 del 1;
#X obj 1414 453 t b b b, f 19;
#X obj 1580 184 aruco, f 7;
#X obj 1808 408 bng 15 250 50 0 start-stage-3 empty To 17 7 0 10 -262144
-1 -1;
#X obj 1808 616 s id1;
#X msg 1808 592 symbol can-start \, symbol o11;
#X obj 1873 493 del 1;
#X obj 1808 453 t b b b, f 19;
#X msg 1938 484 \; id5 symbol 100;
#X msg 1873 528 \; id5 symbol o11;
#X msg 1544 484 \; id4 symbol 100;
#X msg 1479 528 \; id4 symbol o11;
#X obj 5 772 s id3;
#X obj 5 743 t a a a, f 15;
#X obj 56 772 s id4;
#X obj 107 772 s id5;
#X msg 161 711 symbol cant-start;
#X obj 161 740 t a a a, f 15;
#X obj 212 769 s id4;
#X obj 263 769 s id5;
#X obj 161 682 r id3-loadbang;
#X msg 317 713 symbol cant-start;
#X obj 317 742 t a a a, f 15;
#X obj 419 771 s id5;
#X msg 473 710 symbol cant-start;
#X obj 473 739 t a a a, f 15;
#X obj 317 684 r id4-loadbang;
#X obj 473 681 r id5-loadbang;
#X obj 317 771 s id2;
#X obj 368 771 s id3;
#X obj 161 769 s id2;
#X obj 473 768 s id2;
#X obj 575 768 s id4;
#X obj 524 768 s id3;
#X obj 1312 191 bng 31 250 50 0 id4-loadbang empty ID4-LOADBANG 34
22 0 10 -159680 -1 -1;
#X obj 1706 191 bng 31 250 50 0 id5-loadbang empty ID5-LOADBANG 34
22 0 10 -159680 -1 -1;
#X obj 1406 164 r id4;
#X obj 1802 164 r id5;
#X obj 233 566 t a a a a, f 23;
#X obj 338 595 s id4;
#X obj 391 595 s id5;
#X obj 7 921 s id2;
#X obj 66 921 s id3;
#X obj 7 892 t a a a a, f 26;
#X obj 186 921 s id5;
#X obj 126 921 s id4;
#X obj 918 191 bng 31 250 50 0 id3-loadbang empty ID3-LOADBANG 34 22
0 10 -159680 -1 -1;
#X connect 0 0 1 0;
#X connect 1 0 2 0;
#X connect 2 0 38 0;
#X connect 4 0 3 0;
#X connect 4 1 5 0;
#X connect 4 2 6 0;
#X connect 6 0 12 0;
#X connect 7 0 3 1;
#X connect 7 1 11 0;
#X connect 7 2 9 0;
#X connect 8 0 3 2;
#X connect 8 1 89 0;
#X connect 8 2 10 0;
#X connect 9 0 31 0;
#X connect 10 0 35 0;
#X connect 12 0 20 0;
#X connect 12 1 25 0;
#X connect 13 0 4 1;
#X connect 14 0 7 1;
#X connect 16 0 8 1;
#X connect 17 0 19 0;
#X connect 18 0 17 0;
#X connect 19 0 86 0;
#X connect 20 0 81 0;
#X connect 23 0 24 0;
#X connect 24 0 56 0;
#X connect 25 0 15 0;
#X connect 27 0 26 0;
#X connect 29 0 30 0;
#X connect 31 0 27 0;
#X connect 31 1 29 0;
#X connect 31 2 28 0;
#X connect 33 0 32 0;
#X connect 34 0 36 0;
#X connect 35 0 33 0;
#X connect 35 1 34 0;
#X connect 35 2 37 0;
#X connect 38 0 4 0;
#X connect 38 1 7 0;
#X connect 38 2 8 0;
#X connect 38 3 39 0;
#X connect 38 4 45 0;
#X connect 39 0 3 3;
#X connect 39 1 77 0;
#X connect 39 2 40 0;
#X connect 40 0 44 0;
#X connect 42 0 41 0;
#X connect 43 0 54 0;
#X connect 44 0 42 0;
#X connect 44 1 43 0;
#X connect 44 2 53 0;
#X connect 45 0 3 4;
#X connect 45 1 78 0;
#X connect 45 2 46 0;
#X connect 46 0 50 0;
#X connect 48 0 47 0;
#X connect 49 0 52 0;
#X connect 50 0 48 0;
#X connect 50 1 49 0;
#X connect 50 2 51 0;
#X connect 56 0 55 0;
#X connect 56 1 57 0;
#X connect 56 2 58 0;
#X connect 59 0 60 0;
#X connect 60 0 73 0;
#X connect 60 1 61 0;
#X connect 60 2 62 0;
#X connect 63 0 59 0;
#X connect 64 0 65 0;
#X connect 65 0 71 0;
#X connect 65 1 72 0;
#X connect 65 2 66 0;
#X connect 67 0 68 0;
#X connect 68 0 74 0;
#X connect 68 1 76 0;
#X connect 68 2 75 0;
#X connect 69 0 64 0;
#X connect 70 0 67 0;
#X connect 79 0 39 1;
#X connect 80 0 45 1;
#X connect 81 0 21 0;
#X connect 81 1 22 0;
#X connect 81 2 82 0;
#X connect 81 3 83 0;
#X connect 86 0 84 0;
#X connect 86 1 85 0;
#X connect 86 2 88 0;
#X connect 86 3 87 0;
#X restore 22 12 pd aruco_ids;
#X obj 501 520 expr~ ($v1 * $f5) \; ($v2 * $f6) \; ($v3 * $f7) \; ($v4
* $f8) \;;
#X obj 571 431 expr $f1 \; $f2 \; $f3 \; $f4 \;, f 8;
#X text 645 442 <-placeholder: cambialo a audio_pan;
#X connect 1 0 12 0;
#X connect 1 0 13 0;
#X connect 3 0 4 0;
#X connect 4 0 2 0;
#X connect 4 1 5 0;
#X connect 5 0 6 0;
#X connect 5 1 9 0;
#X connect 6 0 7 0;
#X connect 9 0 21 0;
#X connect 11 0 12 1;
#X connect 11 1 13 1;
#X connect 12 0 0 0;
#X connect 13 0 0 1;
#X connect 15 0 14 0;
#X connect 15 1 14 1;
#X connect 16 0 17 0;
#X connect 16 1 17 1;
#X connect 21 0 8 0;
#X connect 21 1 10 0;
#X connect 21 2 23 0;
#X connect 21 3 22 0;
#X connect 26 0 25 4;
#X connect 26 1 25 5;
#X connect 26 2 25 6;
#X connect 26 3 25 7;
