#N canvas 555 59 1365 673 12;
#N canvas 0 59 1920 983 routing 0;
#X obj 4 6 mrpeach/udpreceive 9007;
#X obj 4 37 mrpeach/unpackOSC;
#X obj 4 70 mrpeach/routeOSC /id;
#X obj 4 95 mrpeach/routeOSC /1 /2 /3 /4 /5, f 249;
#X obj 2 217 mrpeach/routeOSC /pos /rot, f 47;
#X floatatom 165 292 5 0 0 0 - - -;
#X obj 165 322 abs;
#X obj 165 351 / 3.141;
#X obj 352 217 mrpeach/routeOSC /pos /rot, f 47;
#X floatatom 515 292 5 0 0 0 - - -;
#X obj 515 322 abs;
#X obj 515 351 / 3.141;
#X obj 692 217 mrpeach/routeOSC /pos /rot, f 47;
#X floatatom 855 292 5 0 0 0 - - -;
#X obj 855 322 abs;
#X obj 855 351 / 3.141;
#X obj 1037 217 mrpeach/routeOSC /pos /rot, f 47;
#X floatatom 1200 292 5 0 0 0 - - -;
#X obj 1200 322 abs;
#X obj 1200 351 / 3.141;
#X obj 1377 217 mrpeach/routeOSC /pos /rot, f 47;
#X floatatom 1540 292 5 0 0 0 - - -;
#X obj 1540 322 abs;
#X obj 1540 351 / 3.141;
#X msg 594 320 1;
#X obj 352 382 pack f f f f, f 35;
#X obj 692 382 pack f f f f, f 36;
#X msg 941 324 2;
#X msg 1286 333 3;
#X msg 1626 343 4;
#X obj 1037 382 pack f f f f, f 36;
#X obj 1377 382 pack f f f f, f 36;
#X obj 165 245 change;
#X obj 515 247 change;
#X obj 855 250 change;
#X obj 1200 254 change;
#X obj 1540 258 change;
#X obj 2 407 outlet;
#X obj 352 407 outlet;
#X obj 692 407 outlet;
#X obj 1037 407 outlet;
#X obj 1377 407 outlet;
#X obj 594 283 loadbang;
#X obj 941 280 loadbang;
#X obj 1286 286 loadbang;
#X obj 1626 306 loadbang;
#X obj 2 382 pack f f f, f 24;
#X connect 0 0 1 0;
#X connect 1 0 2 0;
#X connect 2 0 3 0;
#X connect 3 0 4 0;
#X connect 3 1 8 0;
#X connect 3 2 12 0;
#X connect 3 3 16 0;
#X connect 3 4 20 0;
#X connect 4 0 46 0;
#X connect 4 1 32 0;
#X connect 5 0 6 0;
#X connect 6 0 7 0;
#X connect 7 0 46 2;
#X connect 8 0 25 0;
#X connect 8 1 33 0;
#X connect 9 0 10 0;
#X connect 10 0 11 0;
#X connect 11 0 25 2;
#X connect 12 0 26 0;
#X connect 12 1 34 0;
#X connect 13 0 14 0;
#X connect 14 0 15 0;
#X connect 15 0 26 2;
#X connect 16 0 30 0;
#X connect 16 1 35 0;
#X connect 17 0 18 0;
#X connect 18 0 19 0;
#X connect 19 0 30 2;
#X connect 20 0 31 0;
#X connect 20 1 36 0;
#X connect 21 0 22 0;
#X connect 22 0 23 0;
#X connect 23 0 31 2;
#X connect 24 0 25 3;
#X connect 25 0 38 0;
#X connect 26 0 39 0;
#X connect 27 0 26 3;
#X connect 28 0 30 3;
#X connect 29 0 31 3;
#X connect 30 0 40 0;
#X connect 31 0 41 0;
#X connect 32 0 5 0;
#X connect 33 0 9 0;
#X connect 34 0 13 0;
#X connect 35 0 17 0;
#X connect 36 0 21 0;
#X connect 42 0 24 0;
#X connect 43 0 27 0;
#X connect 44 0 28 0;
#X connect 45 0 29 0;
#X connect 46 0 37 0;
#X restore 14 20 pd routing;
#X f 101;
#X msg 14 141 1;
#N canvas 925 223 480 662 lil'clock 0;
#X obj 120 78 cup;
#X msg 239 25 0;
#X obj 239 58 t b f;
#X obj 120 221 % 11;
#X obj 120 246 sel 10;
#X obj 120 271 bng 15 250 50 0 empty empty empty 17 7 0 10 -262144
-1 -1;
#X obj 120 33 bng 15 250 50 0 empty empty empty 17 7 0 10 -262144 -1
-1;
#X floatatom 120 108 5 0 0 0 - - -;
#X obj 120 -12 metro 1000;
#X obj 120 -41 tgl 15 0 empty empty empty 17 7 0 10 -262144 -1 -1 0
1;
#X obj 120 -101 inlet;
#X obj 120 322 s to-stage2;
#X msg 207 -61 0;
#X obj 207 -86 t b b;
#X obj 207 -112 r to-stage2;
#X obj 215 351 s cycle-start;
#X obj 120 291 t b b, f 14;
#X msg 215 325 1;
#X obj 301 5 inlet;
#X obj 232 117 r change-limit;
#X floatatom 145 137 5 0 0 0 - - -;
#X obj 145 161 t f f;
#X obj 145 186 + 1;
#X connect 0 0 7 0;
#X connect 1 0 2 0;
#X connect 2 0 0 0;
#X connect 2 1 0 0;
#X connect 3 0 4 0;
#X connect 4 0 5 0;
#X connect 5 0 16 0;
#X connect 6 0 0 0;
#X connect 7 0 3 0;
#X connect 8 0 6 0;
#X connect 9 0 8 0;
#X connect 10 0 9 0;
#X connect 12 0 9 0;
#X connect 13 0 12 0;
#X connect 13 1 1 0;
#X connect 14 0 13 0;
#X connect 16 0 11 0;
#X connect 16 1 17 0;
#X connect 17 0 15 0;
#X connect 18 0 1 0;
#X connect 19 0 20 0;
#X connect 20 0 21 0;
#X connect 21 0 22 0;
#X connect 21 1 4 1;
#X connect 22 0 3 1;
#X coords 0 -1 1 1 85 60 1 100 100;
#X restore 14 222 pd lil'clock;
#X msg 190 325 1;
#N canvas 472 285 1280 635 lil'clock 0;
#X obj 120 78 cup;
#X obj 120 231 % 11;
#X obj 120 256 sel 10, f 8;
#X obj 120 292 bng 15 250 50 0 empty empty empty 17 7 0 10 -262144
-1 -1;
#X obj 120 33 bng 15 250 50 0 empty empty empty 17 7 0 10 -262144 -1
-1;
#X obj 120 -12 metro 1000;
#X obj 120 -41 tgl 15 0 empty empty empty 17 7 0 10 -262144 -1 -1 0
1;
#X obj 120 -101 inlet;
#X obj 120 312 s to-stage3;
#X msg 239 25 0;
#X obj 239 58 t b f;
#X msg 207 -61 0;
#X obj 207 -86 t b b;
#X obj 207 -112 r to-stage3;
#X obj 301 5 inlet;
#X floatatom 120 108 5 0 0 0 - - -;
#X obj 232 117 r change-limit;
#X floatatom 145 137 5 0 0 0 - - -;
#X obj 145 171 t f f;
#X obj 145 196 + 1;
#X connect 0 0 15 0;
#X connect 1 0 2 0;
#X connect 2 0 3 0;
#X connect 3 0 8 0;
#X connect 4 0 0 0;
#X connect 5 0 4 0;
#X connect 6 0 5 0;
#X connect 7 0 6 0;
#X connect 9 0 10 0;
#X connect 10 0 0 0;
#X connect 10 1 0 0;
#X connect 11 0 6 0;
#X connect 12 0 11 0;
#X connect 12 1 9 0;
#X connect 13 0 12 0;
#X connect 14 0 9 0;
#X connect 15 0 1 0;
#X connect 16 0 17 0;
#X connect 17 0 18 0;
#X connect 18 0 19 0;
#X connect 18 1 2 1;
#X connect 19 0 1 1;
#X coords 0 -1 1 1 85 60 1 100 100;
#X restore 190 413 pd lil'clock;
#N canvas 1012 742 450 300 moving 0;
#X obj 66 96 inlet;
#X obj 66 151 / 640;
#X obj 113 150 / 480;
#X floatatom 161 151 5 0 0 0 - - -;
#X floatatom 66 176 5 0 0 0 - - -;
#X floatatom 113 175 5 0 0 0 - - -;
#X obj 98 18 r resolution-x;
#X obj 144 60 r resolution-y;
#X floatatom 98 43 5 0 0 0 - - -;
#X floatatom 144 85 5 0 0 0 - - -;
#X obj 66 121 unpack f f f, f 14;
#X connect 0 0 10 0;
#X connect 1 0 4 0;
#X connect 2 0 5 0;
#X connect 6 0 8 0;
#X connect 7 0 9 0;
#X connect 8 0 1 1;
#X connect 9 0 2 1;
#X connect 10 0 1 0;
#X connect 10 1 2 0;
#X connect 10 2 3 0;
#X restore 45 384 pd moving;
#X obj 930 -94 s resolution-x;
#X floatatom 930 -136 5 0 0 0 - - -;
#X obj 1037 -93 s resolution-y;
#X floatatom 1037 -135 5 0 0 0 - - -;
#X obj 74 57 r next-cycle;
#X obj 265 161 r cycle-start;
#X obj 14 87 onebang 1;
#X obj 229 206 tgl 15 0 empty empty empty 17 7 0 10 -262144 -1 -1 0
1;
#X obj 190 230 spigot;
#X obj 236 376 s artefact-chosen;
#X obj 229 118 r artefact-chosen;
#X msg 229 143 0;
#X obj 190 350 t f f b;
#X obj 190 297 onebang, f 16;
#X obj 265 186 t f f, f 6;
#X msg 390 325 1;
#N canvas 555 292 526 670 lil'clock 0;
#X obj 120 78 cup;
#X obj 120 33 bng 15 250 50 0 empty empty empty 17 7 0 10 -262144 -1
-1;
#X obj 120 -12 metro 1000;
#X obj 120 -41 tgl 15 0 empty empty empty 17 7 0 10 -262144 -1 -1 0
1;
#X obj 120 -101 inlet;
#X msg 239 25 0;
#X obj 239 58 t b f;
#X msg 207 -61 0;
#X obj 207 -86 t b b;
#X obj 207 -112 r to-stage3;
#X obj 301 5 inlet;
#X floatatom 120 108 5 0 0 0 - - -;
#X obj 232 117 r change-limit;
#X floatatom 145 137 5 0 0 0 - - -;
#X obj 120 231 % 11;
#X obj 120 256 sel 10, f 8;
#X obj 120 292 bng 15 250 50 0 empty empty empty 17 7 0 10 -262144
-1 -1;
#X obj 120 312 s to-stage3;
#X obj 145 171 t f f;
#X obj 145 196 + 1;
#X connect 0 0 11 0;
#X connect 1 0 0 0;
#X connect 2 0 1 0;
#X connect 3 0 2 0;
#X connect 4 0 3 0;
#X connect 5 0 6 0;
#X connect 6 0 0 0;
#X connect 6 1 0 0;
#X connect 7 0 3 0;
#X connect 8 0 7 0;
#X connect 8 1 5 0;
#X connect 9 0 8 0;
#X connect 10 0 5 0;
#X connect 11 0 14 0;
#X connect 12 0 13 0;
#X connect 13 0 18 0;
#X connect 14 0 15 0;
#X connect 15 0 16 0;
#X connect 16 0 17 0;
#X connect 18 0 19 0;
#X connect 18 1 15 1;
#X connect 19 0 14 1;
#X coords 0 -1 1 1 85 60 1 100 100;
#X restore 390 413 pd lil'clock;
#X obj 465 161 r cycle-start;
#X obj 429 206 tgl 15 0 empty empty empty 17 7 0 10 -262144 -1 -1 0
1;
#X obj 390 230 spigot;
#X obj 436 376 s artefact-chosen;
#X obj 429 118 r artefact-chosen;
#X msg 429 143 0;
#X obj 390 350 t f f b;
#X obj 390 297 onebang, f 16;
#X obj 465 186 t f f, f 6;
#X msg 610 325 1;
#N canvas 680 340 519 554 lil'clock 0;
#X obj 120 78 cup;
#X obj 120 33 bng 15 250 50 0 empty empty empty 17 7 0 10 -262144 -1
-1;
#X obj 120 -12 metro 1000;
#X obj 120 -41 tgl 15 0 empty empty empty 17 7 0 10 -262144 -1 -1 0
1;
#X obj 120 -101 inlet;
#X msg 239 25 0;
#X obj 239 58 t b f;
#X msg 207 -61 0;
#X obj 207 -86 t b b;
#X obj 207 -112 r to-stage3;
#X obj 301 5 inlet;
#X floatatom 120 108 5 0 0 0 - - -;
#X obj 232 117 r change-limit;
#X floatatom 145 137 5 0 0 0 - - -;
#X obj 120 231 % 11;
#X obj 120 256 sel 10, f 8;
#X obj 120 292 bng 15 250 50 0 empty empty empty 17 7 0 10 -262144
-1 -1;
#X obj 120 312 s to-stage3;
#X obj 145 171 t f f;
#X obj 145 196 + 1;
#X connect 0 0 11 0;
#X connect 1 0 0 0;
#X connect 2 0 1 0;
#X connect 3 0 2 0;
#X connect 4 0 3 0;
#X connect 5 0 6 0;
#X connect 6 0 0 0;
#X connect 6 1 0 0;
#X connect 7 0 3 0;
#X connect 8 0 7 0;
#X connect 8 1 5 0;
#X connect 9 0 8 0;
#X connect 10 0 5 0;
#X connect 11 0 14 0;
#X connect 12 0 13 0;
#X connect 13 0 18 0;
#X connect 14 0 15 0;
#X connect 15 0 16 0;
#X connect 16 0 17 0;
#X connect 18 0 19 0;
#X connect 18 1 15 1;
#X connect 19 0 14 1;
#X coords 0 -1 1 1 85 60 1 100 100;
#X restore 610 413 pd lil'clock;
#X obj 685 161 r cycle-start;
#X obj 649 206 tgl 15 0 empty empty empty 17 7 0 10 -262144 -1 -1 0
1;
#X obj 610 230 spigot;
#X obj 656 376 s artefact-chosen;
#X obj 649 118 r artefact-chosen;
#X msg 649 143 0;
#X obj 610 350 t f f b;
#X obj 610 297 onebang, f 16;
#X obj 685 186 t f f, f 6;
#X msg 820 325 1;
#N canvas 1072 350 429 478 lil'clock 0;
#X obj 120 78 cup;
#X obj 120 33 bng 15 250 50 0 empty empty empty 17 7 0 10 -262144 -1
-1;
#X obj 120 -12 metro 1000;
#X obj 120 -41 tgl 15 0 empty empty empty 17 7 0 10 -262144 -1 -1 0
1;
#X obj 120 -101 inlet;
#X msg 239 25 0;
#X obj 239 58 t b f;
#X msg 207 -61 0;
#X obj 207 -86 t b b;
#X obj 207 -112 r to-stage3;
#X obj 301 5 inlet;
#X floatatom 120 108 5 0 0 0 - - -;
#X obj 232 117 r change-limit;
#X floatatom 145 137 5 0 0 0 - - -;
#X obj 120 231 % 11;
#X obj 120 256 sel 10, f 8;
#X obj 120 292 bng 15 250 50 0 empty empty empty 17 7 0 10 -262144
-1 -1;
#X obj 120 312 s to-stage3;
#X obj 145 171 t f f;
#X obj 145 196 + 1;
#X connect 0 0 11 0;
#X connect 1 0 0 0;
#X connect 2 0 1 0;
#X connect 3 0 2 0;
#X connect 4 0 3 0;
#X connect 5 0 6 0;
#X connect 6 0 0 0;
#X connect 6 1 0 0;
#X connect 7 0 3 0;
#X connect 8 0 7 0;
#X connect 8 1 5 0;
#X connect 9 0 8 0;
#X connect 10 0 5 0;
#X connect 11 0 14 0;
#X connect 12 0 13 0;
#X connect 13 0 18 0;
#X connect 14 0 15 0;
#X connect 15 0 16 0;
#X connect 16 0 17 0;
#X connect 18 0 19 0;
#X connect 18 1 15 1;
#X connect 19 0 14 1;
#X coords 0 -1 1 1 85 60 1 100 100;
#X restore 820 413 pd lil'clock;
#X obj 895 161 r cycle-start;
#X obj 859 206 tgl 15 0 empty empty empty 17 7 0 10 -262144 -1 -1 0
1;
#X obj 820 230 spigot;
#X obj 866 376 s artefact-chosen;
#X obj 859 118 r artefact-chosen;
#X msg 859 143 0;
#X obj 820 350 t f f b;
#X obj 820 297 onebang, f 16;
#X obj 895 186 t f f, f 6;
#X obj 1260 -89 s next-cycle;
#X obj 1157 -90 s cycle-start;
#X obj 1157 -114 bng 15 250 50 0 empty empty empty 17 7 0 10 -262144
-1 -1;
#X obj 1262 -115 bng 15 250 50 0 empty empty empty 17 7 0 10 -262144
-1 -1;
#X obj 1157 -63 r cycle-start;
#X obj 1260 -62 r next-cycle;
#X obj 1157 -32 bng 15 250 50 0 empty empty empty 17 7 0 10 -262144
-1 -1;
#X obj 1260 -31 bng 15 250 50 0 empty empty empty 17 7 0 10 -262144
-1 -1;
#X obj 84 -146 r to-stage3;
#X msg 172 -32 0;
#X obj 172 -7 t f f f f, f 78;
#X obj 226 -163 r next-cycle;
#X msg 226 -138 0;
#X obj 226 -113 t f f f f, f 91;
#X obj 14 57 t b l;
#X obj 84 -120 t b b, f 13;
#X msg 84 -94 1;
#X obj 84 -49 r to-stage2;
#X msg 84 -23 0;
#X obj 45 332 spigot;
#X obj 84 309 tgl 15 0 empty empty empty 17 7 0 10 -262144 -1 -1 1
1;
#X obj 7 -114 loadbang;
#X obj 190 270 t b l, f 6;
#X obj 390 270 t b l, f 6;
#X obj 610 270 t b l, f 6;
#X obj 820 270 t b l, f 6;
#N canvas 0 59 1920 983 artefacts 1;
#X obj 17 656 / 640;
#X obj 65 655 / 480;
#X floatatom 113 680 5 0 0 0 - - -;
#X floatatom 17 681 5 0 0 0 - - -;
#X floatatom 65 680 5 0 0 0 - - -;
#X obj 49 523 r resolution-x;
#X obj 96 565 r resolution-y;
#X floatatom 49 548 5 0 0 0 - - -;
#X floatatom 96 590 5 0 0 0 - - -;
#X obj 17 626 unpack f f f f, f 21;
#X floatatom 161 778 5 0 0 0 - - -;
#X obj 220 654 / 640;
#X obj 268 653 / 480;
#X floatatom 316 678 5 0 0 0 - - -;
#X floatatom 220 679 5 0 0 0 - - -;
#X floatatom 268 678 5 0 0 0 - - -;
#X obj 252 521 r resolution-x;
#X obj 299 563 r resolution-y;
#X floatatom 252 546 5 0 0 0 - - -;
#X floatatom 299 588 5 0 0 0 - - -;
#X obj 220 624 unpack f f f f, f 21;
#X floatatom 364 833 5 0 0 0 - - -;
#X obj 424 651 / 640;
#X obj 472 650 / 480;
#X floatatom 520 675 5 0 0 0 - - -;
#X floatatom 424 676 5 0 0 0 - - -;
#X floatatom 472 675 5 0 0 0 - - -;
#X obj 456 518 r resolution-x;
#X obj 503 560 r resolution-y;
#X floatatom 456 543 5 0 0 0 - - -;
#X floatatom 503 585 5 0 0 0 - - -;
#X obj 424 621 unpack f f f f, f 21;
#X floatatom 568 673 5 0 0 0 - - -;
#X obj 628 642 / 640;
#X obj 676 641 / 480;
#X floatatom 724 666 5 0 0 0 - - -;
#X floatatom 628 667 5 0 0 0 - - -;
#X floatatom 676 666 5 0 0 0 - - -;
#X obj 660 509 r resolution-x;
#X obj 707 551 r resolution-y;
#X floatatom 660 534 5 0 0 0 - - -;
#X floatatom 707 576 5 0 0 0 - - -;
#X obj 628 612 unpack f f f f, f 21;
#X floatatom 772 726 5 0 0 0 - - -;
#X obj 18 335 inlet;
#X obj 94 335 inlet;
#X obj 170 337 inlet;
#X obj 246 336 inlet;
#X obj 18 425 spoggle 1;
#X obj 94 428 spoggle 2;
#X obj 170 429 spoggle 3;
#X obj 246 429 spoggle 4;
#X obj 79 41 hradio 15 1 0 4 empty empty empty 0 -8 0 10 -262144 -1
-1 3;
#X obj 78 155 + 1;
#X floatatom 78 180 5 0 0 0 - - -;
#X obj 73 -36 r cycle-start;
#X obj 73 -6 bng 15 250 50 0 empty empty empty 17 7 0 10 -262144 -1
-1;
#X obj 173 -54 r next-cycle;
#X obj 173 -29 cup;
#X floatatom 173 46 5 0 0 0 - - -;
#X obj 173 -75 bng 15 250 50 0 empty empty empty 17 7 0 10 -262144
-1 -1;
#X msg 313 -49 0;
#X obj 173 -4 % 4;
#X obj 78 204 t f f f f, f 33;
#X obj 17 755 pack f f f, f 14;
#X obj 219 775 pack f f f, f 14;
#X obj 424 805 pack f f f, f 14;
#X obj 628 775 pack f f f, f 14;
#X obj 161 834 s first-voice-id;
#X obj 364 892 s second-voice-id;
#X obj 568 859 s third-voice-id;
#X obj 772 794 s fourth-voice-id;
#X obj 17 780 s f-recycling;
#X obj 219 800 s s-recycling;
#X obj 424 830 s t-recycling;
#X obj 65 724 t b f;
#X obj 113 724 t b f;
#X obj 267 722 t b f;
#X obj 315 722 t b f;
#X obj 471 725 t b f;
#X obj 519 725 t b f;
#X obj 673 706 t b f;
#X obj 721 706 t b f;
#X obj 628 800 s frth-recycling;
#X obj 313 -92 r restart;
#X obj 79 81 s current-cycle;
#X obj 78 121 r current-cycle;
#N canvas 446 218 1296 736 recycler 0;
#X obj 7 64 r f-recycling;
#X obj 234 67 r s-recycling;
#X obj 436 64 r t-recycling;
#X obj 7 89 unpack f f f, f 18;
#X msg 7 220 127;
#X msg 68 153 123;
#X msg 130 187 128;
#X obj 234 112 unpack f f f, f 18;
#X msg 234 232 115;
#X msg 295 176 105;
#X msg 357 210 75;
#X obj 436 110 unpack f f f, f 18;
#X msg 436 230 95;
#X msg 497 174 96;
#X msg 559 208 94;
#X obj 651 109 unpack f f f, f 18;
#X msg 651 229 106;
#X msg 712 173 85;
#X msg 774 207 84;
#X msg 7 193 set \$1;
#X msg 68 128 set \$1;
#X msg 130 162 set \$1;
#X msg 234 207 set \$1;
#X msg 295 151 set \$1;
#X msg 357 185 set \$1;
#X msg 436 205 set \$1;
#X msg 497 149 set \$1;
#X msg 559 183 set \$1;
#X msg 651 204 set \$1;
#X msg 712 148 set \$1;
#X msg 774 182 set \$1;
#X obj 651 63 r frth-recycling;
#X obj 8 282 pack f 1000;
#X obj 116 281 pack f 1000;
#X obj 224 -274 r recycler-time;
#X obj 12 -266 r to-stage3;
#X obj 12 -124 spoggle 1;
#X obj 234 -151 spoggle 2;
#X obj 438 -117 spoggle 3;
#X obj 653 -121 spoggle 4;
#X obj 72 -354 + 1;
#X floatatom 72 -329 5 0 0 0 - - -;
#X obj 72 -305 t f f f f, f 93;
#X obj 72 -388 r current-cycle;
#X obj 11 -85 bng 15 250 50 0 empty empty empty 17 7 0 10 -262144 -1
-1;
#X obj 8 -25 t b b b, f 18;
#X obj 234 -116 bng 15 250 50 0 empty empty empty 17 7 0 10 -262144
-1 -1;
#X obj 234 -56 t b b b, f 18;
#X obj 437 -86 bng 15 250 50 0 empty empty empty 17 7 0 10 -262144
-1 -1;
#X obj 437 -26 t b b b, f 18;
#X obj 651 -87 bng 15 250 50 0 empty empty empty 17 7 0 10 -262144
-1 -1;
#X obj 651 -27 t b b b, f 18;
#X obj 8 307 line;
#X floatatom 8 332 5 0 0 0 - - -;
#X obj 116 306 line;
#X floatatom 116 331 5 0 0 0 - - -;
#X obj 235 -94 t b b, f 20;
#X obj 435 -63 t b b, f 20;
#X obj 649 -66 t b b, f 20;
#X obj 171 -8 del 1000;
#X obj 372 5 del 1000;
#X obj 572 6 del 1000;
#X obj 786 31 del 1000;
#X obj 786 56 s to-third!;
#X obj 372 30 s to first!;
#X obj 572 31 s to-second!;
#X obj 171 17 s recycled!;
#X obj 536 -105 r to-third!;
#X obj 315 -136 r to-second!;
#X obj 108 -105 r to first!;
#X obj 11 -64 t b b, f 24;
#X obj 224 -248 t f f f f, f 88;
#X obj 236 333 pack f 1000;
#X obj 344 332 pack f 1000;
#X obj 236 358 line;
#X floatatom 236 383 5 0 0 0 - - -;
#X obj 344 357 line;
#X floatatom 344 382 5 0 0 0 - - -;
#X obj 464 333 pack f 1000;
#X obj 572 332 pack f 1000;
#X obj 464 358 line;
#X floatatom 464 383 5 0 0 0 - - -;
#X obj 572 357 line;
#X floatatom 572 382 5 0 0 0 - - -;
#X obj 684 330 pack f 1000;
#X obj 792 329 pack f 1000;
#X obj 684 355 line;
#X floatatom 684 380 5 0 0 0 - - -;
#X obj 792 354 line;
#X floatatom 792 379 5 0 0 0 - - -;
#X obj 12 499 r recycler-time;
#X obj 12 525 t f f f f, f 88;
#X obj 11 562 t f f;
#X obj 211 565 t f f;
#X obj 417 566 t f f;
#X obj 613 566 t f f;
#X obj 15 424 pack f f, f 15;
#X obj 234 423 pack f f, f 15;
#X obj 438 422 pack f f, f 15;
#X obj 668 427 pack f f, f 15;
#X connect 0 0 3 0;
#X connect 1 0 7 0;
#X connect 2 0 11 0;
#X connect 3 0 19 0;
#X connect 3 1 20 0;
#X connect 3 2 21 0;
#X connect 6 0 33 0;
#X connect 7 0 22 0;
#X connect 7 1 23 0;
#X connect 7 2 24 0;
#X connect 10 0 73 0;
#X connect 11 0 25 0;
#X connect 11 1 26 0;
#X connect 11 2 27 0;
#X connect 14 0 79 0;
#X connect 15 0 28 0;
#X connect 15 1 29 0;
#X connect 15 2 30 0;
#X connect 18 0 85 0;
#X connect 19 0 4 0;
#X connect 20 0 5 0;
#X connect 21 0 6 0;
#X connect 22 0 8 0;
#X connect 23 0 9 0;
#X connect 24 0 10 0;
#X connect 25 0 12 0;
#X connect 26 0 13 0;
#X connect 27 0 14 0;
#X connect 28 0 16 0;
#X connect 29 0 17 0;
#X connect 30 0 18 0;
#X connect 31 0 15 0;
#X connect 32 0 52 0;
#X connect 33 0 54 0;
#X connect 34 0 71 0;
#X connect 35 0 36 0;
#X connect 35 0 39 0;
#X connect 35 0 38 0;
#X connect 35 0 37 0;
#X connect 36 0 44 0;
#X connect 37 0 46 0;
#X connect 38 0 48 0;
#X connect 39 0 50 0;
#X connect 40 0 41 0;
#X connect 41 0 42 0;
#X connect 42 0 36 1;
#X connect 42 1 37 1;
#X connect 42 2 38 1;
#X connect 42 3 39 1;
#X connect 43 0 40 0;
#X connect 44 0 70 0;
#X connect 45 0 4 0;
#X connect 45 1 5 0;
#X connect 45 2 6 0;
#X connect 46 0 56 0;
#X connect 47 0 8 0;
#X connect 47 1 9 0;
#X connect 47 2 10 0;
#X connect 48 0 57 0;
#X connect 49 0 12 0;
#X connect 49 1 13 0;
#X connect 49 2 14 0;
#X connect 50 0 58 0;
#X connect 51 0 16 0;
#X connect 51 1 17 0;
#X connect 51 2 18 0;
#X connect 52 0 53 0;
#X connect 53 0 96 0;
#X connect 54 0 55 0;
#X connect 55 0 96 1;
#X connect 56 0 47 0;
#X connect 56 1 60 0;
#X connect 57 0 49 0;
#X connect 57 1 61 0;
#X connect 58 0 51 0;
#X connect 58 1 62 0;
#X connect 59 0 66 0;
#X connect 60 0 64 0;
#X connect 61 0 65 0;
#X connect 62 0 63 0;
#X connect 67 0 48 0;
#X connect 68 0 46 0;
#X connect 69 0 44 0;
#X connect 70 0 45 0;
#X connect 70 1 59 0;
#X connect 71 0 59 1;
#X connect 71 1 60 1;
#X connect 71 2 61 1;
#X connect 71 3 62 1;
#X connect 72 0 74 0;
#X connect 73 0 76 0;
#X connect 74 0 75 0;
#X connect 75 0 97 0;
#X connect 76 0 77 0;
#X connect 77 0 97 1;
#X connect 78 0 80 0;
#X connect 79 0 82 0;
#X connect 80 0 81 0;
#X connect 81 0 98 0;
#X connect 82 0 83 0;
#X connect 83 0 98 1;
#X connect 84 0 86 0;
#X connect 85 0 88 0;
#X connect 86 0 87 0;
#X connect 87 0 99 0;
#X connect 88 0 89 0;
#X connect 89 0 99 1;
#X connect 90 0 91 0;
#X connect 91 0 92 0;
#X connect 91 1 93 0;
#X connect 91 2 94 0;
#X connect 91 3 95 0;
#X connect 92 0 32 1;
#X connect 92 1 33 1;
#X connect 93 0 72 1;
#X connect 93 1 73 1;
#X connect 94 0 78 1;
#X connect 94 1 79 1;
#X connect 95 0 84 1;
#X connect 95 1 85 1;
#X restore 1246 117 pd recycler;
#N canvas 0 59 1920 983 voices 0;
#X obj 2 35 r first-voice-id;
#X obj 144 35 r second-voice-id;
#X obj 288 35 r third-voice-id;
#X obj 421 34 r fourth-voice-id;
#X obj 2 156 sel 1 2 3 4, f 41;
#X floatatom 2 60 5 0 0 0 - - -;
#X floatatom 144 60 5 0 0 0 - - -;
#X floatatom 288 60 5 0 0 0 - - -;
#X floatatom 421 59 5 0 0 0 - - -;
#X obj 2 217 bng 15 250 50 0 empty empty empty 17 7 0 10 -262144 -1
-1;
#X obj 73 218 bng 15 250 50 0 empty empty empty 17 7 0 10 -262144 -1
-1;
#X obj 144 218 bng 15 250 50 0 empty empty empty 17 7 0 10 -262144
-1 -1;
#X obj 215 218 bng 15 250 50 0 empty empty empty 17 7 0 10 -262144
-1 -1;
#X obj 511 513 + 1;
#X floatatom 511 538 5 0 0 0 - - -;
#X obj 511 562 t f f f f, f 33;
#X obj 511 479 r current-cycle;
#X obj 18 675 readsf~;
#X obj 64 632 bng 15 250 50 0 empty empty empty 17 7 0 10 -262144 -1
-1;
#X msg 18 647 open ./instrumento_fiducial/1-IF.wav \, start;
#X obj 94 592 readsf~;
#X obj 140 549 bng 15 250 50 0 empty empty empty 17 7 0 10 -262144
-1 -1;
#X msg 94 564 open ./instrumento_fiducial/2-IF.wav \, start;
#X obj 226 347 readsf~;
#X obj 272 304 bng 15 250 50 0 empty empty empty 17 7 0 10 -262144
-1 -1;
#X msg 226 319 open ./instrumento_fiducial/2-IF.wav \, start;
#X obj 149 442 readsf~;
#X obj 195 399 bng 15 250 50 0 empty empty empty 17 7 0 10 -262144
-1 -1;
#X msg 149 414 open ./instrumento_fiducial/1-IF.wav \, start;
#X obj 451 783 spoggle~ 1;
#X obj 527 786 spoggle~ 2;
#X obj 603 787 spoggle~ 3;
#X obj 679 787 spoggle~ 4;
#X obj 2 237 t b b;
#X obj 73 238 t b b;
#X obj 144 238 t b b;
#X obj 215 238 t b b;
#X obj 1003 526 line~;
#X obj 1099 525 line~;
#X obj 1195 525 line~;
#X obj 1288 526 line~;
#X obj 451 808 *~;
#X obj 527 811 *~;
#X obj 603 812 *~;
#X obj 679 812 *~;
#X obj 1003 458 pack f 1000;
#X obj 1099 457 pack f 1000;
#X obj 1195 457 pack f 1000;
#X obj 1288 458 pack f 1000;
#X obj 992 163 r cycle-start;
#X msg 992 188 set 1;
#X msg 1000 376 1;
#X msg 1041 376 1;
#X msg 1088 375 1;
#X msg 1134 377 1;
#X obj 992 213 t a a a a, f 16;
#X obj 451 833 outlet~;
#X obj 527 836 outlet~;
#X obj 603 837 outlet~;
#X obj 679 837 outlet~;
#X connect 0 0 5 0;
#X connect 1 0 6 0;
#X connect 2 0 7 0;
#X connect 3 0 8 0;
#X connect 4 0 9 0;
#X connect 4 1 10 0;
#X connect 4 2 11 0;
#X connect 4 3 12 0;
#X connect 5 0 4 0;
#X connect 6 0 4 0;
#X connect 7 0 4 0;
#X connect 8 0 4 0;
#X connect 9 0 33 0;
#X connect 10 0 34 0;
#X connect 11 0 35 0;
#X connect 12 0 36 0;
#X connect 13 0 14 0;
#X connect 14 0 15 0;
#X connect 15 0 29 1;
#X connect 15 1 30 1;
#X connect 15 2 31 1;
#X connect 15 3 32 1;
#X connect 16 0 13 0;
#X connect 17 0 29 0;
#X connect 17 0 30 0;
#X connect 17 0 31 0;
#X connect 17 0 32 0;
#X connect 17 1 18 0;
#X connect 18 0 19 0;
#X connect 19 0 17 0;
#X connect 20 0 29 0;
#X connect 20 0 30 0;
#X connect 20 0 31 0;
#X connect 20 0 32 0;
#X connect 20 1 21 0;
#X connect 21 0 22 0;
#X connect 22 0 20 0;
#X connect 23 0 29 0;
#X connect 23 0 30 0;
#X connect 23 0 31 0;
#X connect 23 0 32 0;
#X connect 23 1 24 0;
#X connect 24 0 25 0;
#X connect 25 0 23 0;
#X connect 26 0 29 0;
#X connect 26 0 30 0;
#X connect 26 0 31 0;
#X connect 26 0 32 0;
#X connect 26 1 27 0;
#X connect 27 0 28 0;
#X connect 28 0 26 0;
#X connect 29 0 41 0;
#X connect 30 0 42 0;
#X connect 31 0 43 0;
#X connect 32 0 44 0;
#X connect 33 0 19 0;
#X connect 33 1 51 0;
#X connect 34 0 22 0;
#X connect 34 1 52 0;
#X connect 35 0 28 0;
#X connect 35 1 53 0;
#X connect 36 0 25 0;
#X connect 36 1 54 0;
#X connect 37 0 41 1;
#X connect 38 0 42 1;
#X connect 39 0 43 1;
#X connect 40 0 44 1;
#X connect 41 0 56 0;
#X connect 42 0 57 0;
#X connect 43 0 58 0;
#X connect 44 0 59 0;
#X connect 45 0 37 0;
#X connect 46 0 38 0;
#X connect 47 0 39 0;
#X connect 48 0 40 0;
#X connect 49 0 50 0;
#X connect 50 0 55 0;
#X connect 51 0 45 0;
#X connect 52 0 46 0;
#X connect 53 0 47 0;
#X connect 54 0 48 0;
#X connect 55 0 51 0;
#X connect 55 1 52 0;
#X connect 55 2 53 0;
#X connect 55 3 54 0;
#X restore 981 11 pd voices;
#N canvas 0 59 1920 983 mixer 0;
#X obj 745 88 inlet~;
#X obj 801 87 inlet~;
#X obj 859 87 inlet~;
#X obj 915 86 inlet~;
#X obj 971 119 vsl 15 128 0 1 0 0 empty empty empty 0 -9 0 10 -262144
-1 -1 0 1;
#X obj 1002 119 vsl 15 128 0 1 0 0 empty empty empty 0 -9 0 10 -262144
-1 -1 0 1;
#X obj 1031 119 vsl 15 128 0 1 0 0 empty empty empty 0 -9 0 10 -262144
-1 -1 0 1;
#X obj 1064 120 vsl 15 128 0 1 0 0 empty empty empty 0 -9 0 10 -262144
-1 -1 0 1;
#X obj 745 256 expr~ $v1 * $f5 \; $v2 * $f6 \; $v3 * $f7 \; $v4 * $f8
\;, f 57;
#X obj 745 326 expr~ $v1 + $v2 + $v3 + $v4, f 57;
#X obj 675 38 inlet~;
#X obj 674 367 expr~ ($v1 * $f3) + ($v2 * $f4);
#X obj 1191 236 vsl 15 128 0 1 0 0 empty empty empty 0 -9 0 10 -262144
-1 -1 0 1;
#X obj 1224 236 vsl 15 128 0 1 0 0 empty empty empty 0 -9 0 10 -262144
-1 -1 0 1;
#X obj 674 392 outlet~;
#X connect 0 0 8 0;
#X connect 1 0 8 1;
#X connect 2 0 8 2;
#X connect 3 0 8 3;
#X connect 4 0 8 4;
#X connect 5 0 8 5;
#X connect 6 0 8 6;
#X connect 7 0 8 7;
#X connect 8 0 9 0;
#X connect 8 1 9 1;
#X connect 8 2 9 2;
#X connect 8 3 9 3;
#X connect 9 0 11 1;
#X connect 10 0 11 0;
#X connect 11 0 14 0;
#X connect 12 0 11 2;
#X connect 13 0 11 3;
#X restore 933 43 pd mixer;
#X f 16;
#X connect 0 0 3 0;
#X connect 1 0 4 0;
#X connect 2 0 76 0;
#X connect 3 0 64 0;
#X connect 4 0 75 0;
#X connect 5 0 7 0;
#X connect 6 0 8 0;
#X connect 7 0 0 1;
#X connect 8 0 1 1;
#X connect 9 0 0 0;
#X connect 9 1 1 0;
#X connect 9 2 2 0;
#X connect 9 3 10 0;
#X connect 10 0 68 0;
#X connect 11 0 14 0;
#X connect 12 0 15 0;
#X connect 13 0 78 0;
#X connect 14 0 65 0;
#X connect 15 0 77 0;
#X connect 16 0 18 0;
#X connect 17 0 19 0;
#X connect 18 0 11 1;
#X connect 19 0 12 1;
#X connect 20 0 11 0;
#X connect 20 1 12 0;
#X connect 20 2 13 0;
#X connect 20 3 21 0;
#X connect 21 0 69 0;
#X connect 22 0 25 0;
#X connect 23 0 26 0;
#X connect 24 0 80 0;
#X connect 25 0 66 0;
#X connect 26 0 79 0;
#X connect 27 0 29 0;
#X connect 28 0 30 0;
#X connect 29 0 22 1;
#X connect 30 0 23 1;
#X connect 31 0 22 0;
#X connect 31 1 23 0;
#X connect 31 2 24 0;
#X connect 31 3 32 0;
#X connect 32 0 70 0;
#X connect 33 0 36 0;
#X connect 34 0 37 0;
#X connect 35 0 82 0;
#X connect 36 0 67 0;
#X connect 37 0 81 0;
#X connect 38 0 40 0;
#X connect 39 0 41 0;
#X connect 40 0 33 1;
#X connect 41 0 34 1;
#X connect 42 0 33 0;
#X connect 42 1 34 0;
#X connect 42 2 35 0;
#X connect 42 3 43 0;
#X connect 43 0 71 0;
#X connect 44 0 48 0;
#X connect 44 0 51 0;
#X connect 44 0 50 0;
#X connect 44 0 49 0;
#X connect 45 0 48 0;
#X connect 45 0 51 0;
#X connect 45 0 50 0;
#X connect 45 0 49 0;
#X connect 46 0 48 0;
#X connect 46 0 51 0;
#X connect 46 0 50 0;
#X connect 46 0 49 0;
#X connect 47 0 48 0;
#X connect 47 0 51 0;
#X connect 47 0 50 0;
#X connect 47 0 49 0;
#X connect 48 0 9 0;
#X connect 49 0 20 0;
#X connect 50 0 31 0;
#X connect 51 0 42 0;
#X connect 52 0 85 0;
#X connect 53 0 54 0;
#X connect 54 0 63 0;
#X connect 55 0 56 0;
#X connect 56 0 52 0;
#X connect 57 0 58 0;
#X connect 58 0 62 0;
#X connect 60 0 58 0;
#X connect 61 0 58 0;
#X connect 62 0 59 0;
#X connect 62 0 52 0;
#X connect 63 0 48 1;
#X connect 63 1 49 1;
#X connect 63 2 50 1;
#X connect 63 3 51 1;
#X connect 64 0 72 0;
#X connect 65 0 73 0;
#X connect 66 0 74 0;
#X connect 67 0 83 0;
#X connect 75 0 64 0;
#X connect 75 1 64 1;
#X connect 76 0 64 0;
#X connect 76 1 64 2;
#X connect 77 0 65 0;
#X connect 77 1 65 1;
#X connect 78 0 65 0;
#X connect 78 1 65 2;
#X connect 79 0 66 0;
#X connect 79 1 66 1;
#X connect 80 0 66 0;
#X connect 80 1 66 2;
#X connect 81 0 67 0;
#X connect 81 1 67 1;
#X connect 82 0 67 0;
#X connect 82 1 67 2;
#X connect 84 0 61 0;
#X connect 86 0 53 0;
#X connect 88 0 89 1;
#X connect 88 1 89 2;
#X connect 88 2 89 3;
#X connect 88 3 89 4;
#X restore 229 596 pd artefacts;
#X f 87;
#X floatatom 1133 41 5 0 0 0 - - -;
#X obj 1133 65 s change-limit;
#X msg 1079 21 10;
#X obj 1079 -7 loadbang;
#X connect 0 0 68 0;
#X connect 0 1 14 0;
#X connect 0 2 25 0;
#X connect 0 3 36 0;
#X connect 0 4 47 0;
#X connect 1 0 2 0;
#X connect 3 0 18 0;
#X connect 7 0 6 0;
#X connect 9 0 8 0;
#X connect 10 0 12 1;
#X connect 11 0 20 0;
#X connect 12 0 1 0;
#X connect 12 1 2 1;
#X connect 13 0 14 1;
#X connect 14 0 76 0;
#X connect 16 0 17 0;
#X connect 17 0 13 0;
#X connect 18 0 4 0;
#X connect 18 1 13 0;
#X connect 18 2 15 0;
#X connect 19 0 3 0;
#X connect 19 1 4 1;
#X connect 20 0 13 0;
#X connect 20 1 19 1;
#X connect 21 0 29 0;
#X connect 23 0 31 0;
#X connect 24 0 25 1;
#X connect 25 0 77 0;
#X connect 27 0 28 0;
#X connect 28 0 24 0;
#X connect 29 0 22 0;
#X connect 29 1 24 0;
#X connect 29 2 26 0;
#X connect 30 0 21 0;
#X connect 30 1 22 1;
#X connect 31 0 24 0;
#X connect 31 1 30 1;
#X connect 32 0 40 0;
#X connect 34 0 42 0;
#X connect 35 0 36 1;
#X connect 36 0 78 0;
#X connect 38 0 39 0;
#X connect 39 0 35 0;
#X connect 40 0 33 0;
#X connect 40 1 35 0;
#X connect 40 2 37 0;
#X connect 41 0 32 0;
#X connect 42 0 35 0;
#X connect 42 1 41 1;
#X connect 43 0 51 0;
#X connect 45 0 53 0;
#X connect 46 0 47 1;
#X connect 47 0 79 0;
#X connect 49 0 50 0;
#X connect 50 0 46 0;
#X connect 51 0 44 0;
#X connect 51 1 46 0;
#X connect 51 2 48 0;
#X connect 52 0 43 0;
#X connect 53 0 46 0;
#X connect 53 1 52 1;
#X connect 56 0 55 0;
#X connect 57 0 54 0;
#X connect 58 0 60 0;
#X connect 59 0 61 0;
#X connect 62 0 69 0;
#X connect 63 0 64 0;
#X connect 64 0 13 0;
#X connect 64 1 24 0;
#X connect 64 2 35 0;
#X connect 64 3 46 0;
#X connect 65 0 66 0;
#X connect 66 0 67 0;
#X connect 67 0 13 0;
#X connect 67 1 24 0;
#X connect 67 2 35 0;
#X connect 67 3 46 0;
#X connect 68 0 12 0;
#X connect 68 1 73 0;
#X connect 69 0 70 0;
#X connect 69 1 63 0;
#X connect 70 0 74 0;
#X connect 71 0 72 0;
#X connect 72 0 74 0;
#X connect 73 0 5 0;
#X connect 74 0 73 1;
#X connect 75 0 70 0;
#X connect 76 0 19 0;
#X connect 76 1 80 0;
#X connect 77 0 30 0;
#X connect 77 1 80 1;
#X connect 78 0 41 0;
#X connect 78 1 80 2;
#X connect 79 0 52 0;
#X connect 79 1 80 3;
#X connect 81 0 82 0;
#X connect 83 0 81 0;
#X connect 84 0 83 0;
