#N struct 1153-point float x0 float y0 float s;
#N canvas 489 85 1229 642 12;
#X obj 185 37 pack f f f;
#X floatatom 185 -1 5 0 100 0 - - -;
#X obj 106 -11 vradio 15 1 0 3 empty empty Input 0 -8 0 10 -262144
-1 -1 2;
#X floatatom 106 39 2 0 0 0 - - -;
#X obj 106 111 unpack f f f, f 15;
#X floatatom 106 177 5 0 0 0 - - -;
#X floatatom 157 177 5 0 0 0 - - -;
#X floatatom 208 176 5 0 0 0 - - -;
#N canvas 391 334 1280 635 info 0;
#X obj 108 112 slider2d 127 0 1919 0 1079;
#X obj 16 -88 r resolution-x;
#X obj 132 -88 r resolution-y;
#X obj 16 -9 pack 1 2, f 17;
#X msg 16 21 xrange 0 \$1 \, yrange 0 \$2;
#X obj 16 -34 bondo, f 17;
#X floatatom 16 -63 5 0 0 0 - - -;
#X floatatom 132 -63 5 0 0 0 - - -;
#X obj 41 64 r info-xy-loc;
#X obj 440 47 spigot;
#X obj 515 27 tgl 20 0 empty empty mouse-toggle 22 7 0 10 -262144 -1
-1 1 1;
#X obj 411 196 pack 1 2;
#X obj 410 -40 mouse, f 9;
#X obj 440 118 bondo, f 10;
#X obj 507 154 cyclone/scale 1079 0 0 1079;
#X obj 791 -79 key;
#X obj 791 38 match 48;
#X msg 791 63 1;
#X obj 871 -79 key;
#X obj 941 -79 key;
#X obj 871 38 match 49;
#X obj 941 38 match 50;
#X msg 871 63 2;
#X msg 941 63 2;
#X obj 440 -13 pack f f;
#X obj 440 72 unpack f f;
#X obj 788 182 s arU-move;
#X obj 411 237 s mouse-xy;
#X msg 641 -32 0;
#X msg 680 -31 1;
#X obj 2 248 unpack f f;
#X floatatom 109 245 5 0 0 0 - - -;
#X floatatom 158 245 5 0 0 0 - - -;
#X obj 791 -21 spigot;
#X obj 871 -21 spigot;
#X obj 941 -21 spigot;
#X obj 1047 -75 key;
#X text 1123 -50 shift+c;
#X obj 1047 -49 match 67;
#X obj 1047 21 tgl 15 0 empty empty empty 17 7 0 10 -262144 -1 -1 1
1;
#X obj 1047 -14 bang;
#X obj 241 139 tgl 17 0 empty empty Mouse? 19 7 0 12 -204786 -1 -1
1 1;
#X obj 241 114 tgl 17 0 empty empty Unlocked? 19 7 0 12 -204786 -1
-1 1 1;
#X msg 581 116 0;
#X obj 547 82 t f b;
#X obj 941 185 s FID-mod;
#X connect 0 0 30 0;
#X connect 1 0 6 0;
#X connect 2 0 7 0;
#X connect 3 0 4 0;
#X connect 4 0 0 0;
#X connect 5 0 3 0;
#X connect 5 1 3 1;
#X connect 6 0 5 0;
#X connect 7 0 5 1;
#X connect 7 0 44 0;
#X connect 8 0 0 0;
#X connect 9 0 25 0;
#X connect 10 0 9 1;
#X connect 10 0 41 0;
#X connect 11 0 0 0;
#X connect 11 0 27 0;
#X connect 12 1 24 0;
#X connect 12 2 24 1;
#X connect 13 0 11 0;
#X connect 13 1 14 0;
#X connect 14 0 11 1;
#X connect 15 0 33 0;
#X connect 16 0 17 0;
#X connect 17 0 26 0;
#X connect 17 0 28 0;
#X connect 17 0 45 0;
#X connect 18 0 34 0;
#X connect 19 0 35 0;
#X connect 20 0 22 0;
#X connect 21 0 23 0;
#X connect 22 0 26 0;
#X connect 22 0 29 0;
#X connect 23 0 29 0;
#X connect 23 0 45 0;
#X connect 24 0 9 0;
#X connect 25 0 13 0;
#X connect 25 1 13 1;
#X connect 28 0 10 0;
#X connect 29 0 10 0;
#X connect 30 0 31 0;
#X connect 30 1 32 0;
#X connect 33 0 16 0;
#X connect 34 0 20 0;
#X connect 35 0 21 0;
#X connect 36 0 38 0;
#X connect 38 0 40 0;
#X connect 39 0 33 1;
#X connect 39 0 35 1;
#X connect 39 0 34 1;
#X connect 39 0 42 0;
#X connect 40 0 39 0;
#X connect 43 0 14 2;
#X connect 43 0 14 3;
#X connect 44 0 14 1;
#X connect 44 0 14 4;
#X connect 44 1 43 0;
#X coords 0 -1 1 1 225 170 2 100 100;
#X restore 443 117 pd info;
#X obj 106 86 switch, f 23;
#X obj 264 -28 r mouse-xy;
#X obj 444 91 s resolution-x;
#X obj 553 92 s resolution-y;
#X msg 444 18 1920;
#X obj 444 68 - 1;
#X obj 444 -31 loadbang;
#X obj 444 -6 t b b, f 16;
#X obj 553 68 - 1;
#X msg 553 18 1080;
#X floatatom 444 43 5 0 0 0 - - -;
#X floatatom 553 43 5 0 0 0 - - -;
#X obj 109 349 /;
#X obj 127 319 r resolution-x;
#X obj 234 350 /;
#X obj 252 320 r resolution-y;
#X floatatom 109 374 5 0 0 0 - - -;
#X floatatom 234 375 5 0 0 0 - - -;
#X obj 159 -31 r FID-move;
#X obj 109 398 s x-loc;
#X obj 234 399 s y-loc;
#X connect 0 0 9 1;
#X connect 1 0 0 0;
#X connect 2 0 3 0;
#X connect 3 0 9 0;
#X connect 4 0 5 0;
#X connect 4 1 6 0;
#X connect 4 2 7 0;
#X connect 5 0 21 0;
#X connect 6 0 23 0;
#X connect 9 0 4 0;
#X connect 10 0 9 2;
#X connect 13 0 19 0;
#X connect 14 0 11 0;
#X connect 15 0 16 0;
#X connect 16 0 13 0;
#X connect 16 1 18 0;
#X connect 17 0 12 0;
#X connect 18 0 20 0;
#X connect 19 0 14 0;
#X connect 20 0 17 0;
#X connect 21 0 25 0;
#X connect 22 0 21 1;
#X connect 23 0 26 0;
#X connect 24 0 23 1;
#X connect 25 0 28 0;
#X connect 26 0 29 0;
#X connect 27 0 2 0;
