#N canvas 554 59 1366 673 12;
#X obj 24 448 output~;
#N canvas 86 90 1280 642 effect 0;
#X obj 248 266 expr~ ($v1 * $f3) + ($v2 * $f4), f 38;
#X obj 423 60 r pan-AB;
#X obj 423 89 t f f, f 13;
#X obj 423 118 expr 1 - $f1;
#X obj 423 158 vsl 15 60 0 1 0 0 empty empty empty 0 -9 0 10 -262144
-1 -1 3854 1;
#X obj 511 158 vsl 15 60 0 1 0 0 empty empty empty 0 -9 0 10 -262144
-1 -1 2046 1;
#X obj 251 130 freeverb~;
#X obj 328 130 freeverb~;
#X obj 561 89 t f f, f 22;
#X floatatom 561 147 5 0 0 0 - - -;
#X floatatom 712 147 5 0 0 0 - - -;
#X obj 561 118 expr 1 - ($f1 / 2);
#X msg 561 175 dry \$1;
#X msg 712 175 wet \$1;
#X obj 561 60 r filter;
#X obj 561 204 s dry;
#X obj 712 204 s wet;
#X obj 257 51 r dry;
#X obj 257 80 t a a;
#X obj 324 79 t a a;
#X obj 324 50 r wet;
#X obj 24 110 inlet~;
#X obj 74 110 inlet~;
#X obj 24 180 cnv 15 151 106 empty empty empty 20 12 0 14 -231847 -66577
0;
#X obj 30 209 hsl 128 15 0 1 0 0 pan-AB pan-AB empty -2 -8 0 10 -262144
-1 -1 4404 1;
#X obj 30 259 hsl 128 15 0 1 0 0 filter filter empty -2 -8 0 10 -262144
-1 -1 9126 1;
#X text 28 183 pan-AB;
#X text 28 233 filter, f 10;
#X obj 248 295 outlet~;
#X connect 0 0 28 0;
#X connect 1 0 2 0;
#X connect 2 0 3 0;
#X connect 2 1 5 0;
#X connect 3 0 4 0;
#X connect 4 0 0 2;
#X connect 5 0 0 3;
#X connect 6 0 0 0;
#X connect 6 1 0 0;
#X connect 7 0 0 1;
#X connect 7 1 0 1;
#X connect 8 0 11 0;
#X connect 8 1 10 0;
#X connect 9 0 12 0;
#X connect 10 0 13 0;
#X connect 11 0 9 0;
#X connect 12 0 15 0;
#X connect 13 0 16 0;
#X connect 14 0 8 0;
#X connect 17 0 18 0;
#X connect 18 0 6 0;
#X connect 18 1 7 0;
#X connect 19 0 6 0;
#X connect 19 1 7 0;
#X connect 20 0 19 0;
#X connect 21 0 6 0;
#X connect 21 0 6 1;
#X connect 22 0 7 0;
#X connect 22 0 7 1;
#X restore 23 311 pd effect;
#X f 10;
#N canvas 302 286 872 600 ambient 0;
#X obj 35 141 readsf~;
#X obj 81 98 bng 15 250 50 0 empty empty empty 17 7 0 10 -262144 -1
-1;
#X msg 35 113 open ./ambiente/A-ambiente.wav \, start;
#X obj 123 181 readsf~;
#X obj 169 138 bng 15 250 50 0 empty empty empty 17 7 0 10 -262144
-1 -1;
#X msg 123 153 open ./ambiente/B-ambiente.wav \, start;
#X obj 81 33 t b b, f 13;
#X msg 35 40 stop;
#X obj 35 71 t a a, f 13;
#X obj 35 -22 r reset-all;
#X obj 81 4 r id1-loadbang;
#X obj 35 170 outlet~;
#X obj 123 210 outlet~;
#X connect 0 0 11 0;
#X connect 0 1 1 0;
#X connect 1 0 2 0;
#X connect 2 0 0 0;
#X connect 3 0 12 0;
#X connect 3 1 4 0;
#X connect 4 0 5 0;
#X connect 5 0 3 0;
#X connect 6 0 1 0;
#X connect 6 1 4 0;
#X connect 7 0 8 0;
#X connect 8 0 0 0;
#X connect 8 1 3 0;
#X connect 9 0 7 0;
#X connect 10 0 6 0;
#X restore 23 278 pd ambient;
#N canvas 204 305 1280 635 sequences 0;
#X obj 14 151 readsf~;
#X obj 60 108 bng 15 250 50 0 empty empty empty 17 7 0 10 -262144 -1
-1;
#X msg 14 123 open ./instrumento_fiducial/1-IF.wav \, start;
#X msg 14 6 stop;
#X obj 14 -20 r reset-all;
#X obj 491 151 readsf~;
#X obj 537 108 bng 15 250 50 0 empty empty empty 17 7 0 10 -262144
-1 -1;
#X msg 491 123 open ./instrumento_fiducial/2-IF.wav \, start;
#X obj 14 68 r id2-loadbang;
#X obj 491 68 r id3-loadbang;
#X obj 14 180 outlet~;
#X obj 491 184 outlet~;
#X obj 968 151 readsf~;
#X obj 1014 108 bng 15 250 50 0 empty empty empty 17 7 0 10 -262144
-1 -1;
#X msg 968 123 open ./instrumento_fiducial/1-IF.wav \, start;
#X obj 1446 154 readsf~;
#X obj 1492 111 bng 15 250 50 0 empty empty empty 17 7 0 10 -262144
-1 -1;
#X msg 1446 126 open ./instrumento_fiducial/2-IF.wav \, start;
#X obj 968 180 outlet~;
#X obj 1446 183 outlet~, f 14;
#X obj 14 36 t a a a a, f 205;
#X obj 968 68 r id4-loadbang;
#X obj 1446 71 r id5-loadbang;
#X connect 0 0 10 0;
#X connect 0 1 1 0;
#X connect 1 0 2 0;
#X connect 2 0 0 0;
#X connect 3 0 20 0;
#X connect 4 0 3 0;
#X connect 5 0 11 0;
#X connect 5 1 6 0;
#X connect 6 0 7 0;
#X connect 7 0 5 0;
#X connect 8 0 2 0;
#X connect 9 0 7 0;
#X connect 12 0 18 0;
#X connect 12 1 13 0;
#X connect 13 0 14 0;
#X connect 14 0 12 0;
#X connect 15 0 19 0;
#X connect 15 1 16 0;
#X connect 16 0 17 0;
#X connect 17 0 15 0;
#X connect 20 0 0 0;
#X connect 20 1 5 0;
#X connect 20 2 12 0;
#X connect 20 3 15 0;
#X connect 21 0 14 0;
#X connect 22 0 17 0;
#X restore 106 278 pd sequences;
#X f 36;
#N canvas 103 129 1280 658 seq-effects 0;
#X floatatom 147 37 5 0 1 0 2-rot 2-rot -;
#X obj 13 142 freeverb~;
#X msg 147 121 wet \$1;
#X obj 147 65 t f f, f 13;
#X floatatom 686 33 5 0 1 0 3-rot 3-rot -;
#X obj 686 61 t f f, f 13;
#X msg 235 121 dry \$1;
#X obj 551 138 freeverb~;
#X msg 684 117 wet \$1;
#X msg 772 117 dry \$1;
#X msg 372 121 roomsize \$1;
#X obj 372 87 hsl 128 15 0 1 0 0 empty empty empty -2 -8 0 10 -262144
-1 -1 9126 1;
#X obj 373 57 r filter;
#X obj 235 92 expr 1 - $f1;
#X msg 905 117 roomsize \$1;
#X obj 905 83 hsl 128 15 0 1 0 0 empty empty empty -2 -8 0 10 -262144
-1 -1 9126 1;
#X obj 906 53 r filter;
#X obj 772 88 expr 1 - $f1;
#X obj 13 93 inlet~;
#X obj 551 87 inlet~;
#X obj 14 315 cnv 15 154 160 empty empty empty 20 12 0 14 -233017 -66577
0;
#X obj 18 330 hsl 128 15 0 1 0 0 2-rot 2-rot 2-rot 0 -8 0 10 -260888
-1 -1 0 1;
#X obj 18 370 hsl 128 15 0 1 0 0 3-rot 3-rot 3-rot 0 -8 0 10 -260888
-1 -1 0 1;
#X obj 18 410 hsl 128 15 0 1 0 0 4-rot 4-rot 4-rot 0 -8 0 10 -260888
-1 -1 0 1;
#X obj 18 450 hsl 128 15 0 1 0 0 5-rot 5-rot 5-rot 0 -8 0 10 -260888
-1 -1 0 1;
#X obj 11 240 outlet~;
#X obj 112 242 outlet~;
#X floatatom 406 233 5 0 1 0 4-rot 4-rot -;
#X obj 272 338 freeverb~;
#X msg 406 317 wet \$1;
#X obj 406 261 t f f, f 13;
#X floatatom 945 229 5 0 1 0 5-rot 5-rot -;
#X obj 945 257 t f f, f 13;
#X msg 494 317 dry \$1;
#X obj 810 334 freeverb~;
#X msg 943 313 wet \$1;
#X msg 1031 313 dry \$1;
#X msg 631 317 roomsize \$1;
#X obj 631 283 hsl 128 15 0 1 0 0 empty empty empty -2 -8 0 10 -262144
-1 -1 9126 1;
#X obj 632 253 r filter;
#X obj 494 288 expr 1 - $f1;
#X msg 1164 313 roomsize \$1;
#X obj 1164 279 hsl 128 15 0 1 0 0 empty empty empty -2 -8 0 10 -262144
-1 -1 9126 1;
#X obj 1165 249 r filter;
#X obj 1031 284 expr 1 - $f1;
#X obj 1036 582 inlet~;
#X obj 1109 582 inlet~;
#X obj 270 436 outlet~;
#X obj 808 432 outlet~;
#X connect 0 0 3 0;
#X connect 1 0 25 0;
#X connect 1 1 25 0;
#X connect 2 0 1 0;
#X connect 3 0 2 0;
#X connect 3 1 13 0;
#X connect 4 0 5 0;
#X connect 5 0 8 0;
#X connect 5 1 17 0;
#X connect 6 0 1 0;
#X connect 7 0 26 0;
#X connect 7 1 26 0;
#X connect 8 0 7 0;
#X connect 9 0 7 0;
#X connect 10 0 1 0;
#X connect 11 0 10 0;
#X connect 12 0 11 0;
#X connect 13 0 6 0;
#X connect 14 0 7 0;
#X connect 15 0 14 0;
#X connect 16 0 15 0;
#X connect 17 0 9 0;
#X connect 18 0 1 0;
#X connect 18 0 1 1;
#X connect 19 0 7 0;
#X connect 19 0 7 1;
#X connect 27 0 30 0;
#X connect 28 0 47 0;
#X connect 28 1 47 0;
#X connect 29 0 28 0;
#X connect 30 0 29 0;
#X connect 30 1 40 0;
#X connect 31 0 32 0;
#X connect 32 0 35 0;
#X connect 32 1 44 0;
#X connect 33 0 28 0;
#X connect 34 0 48 0;
#X connect 34 1 48 0;
#X connect 35 0 34 0;
#X connect 36 0 34 0;
#X connect 37 0 28 0;
#X connect 38 0 37 0;
#X connect 39 0 38 0;
#X connect 40 0 33 0;
#X connect 41 0 34 0;
#X connect 42 0 41 0;
#X connect 43 0 42 0;
#X connect 44 0 36 0;
#X connect 45 0 28 0;
#X connect 45 0 28 1;
#X connect 46 0 34 0;
#X connect 46 0 34 1;
#X restore 106 312 pd seq-effects;
#X f 36;
#N canvas 208 224 1280 635 position 0;
#X obj 260 -12 grid grid1 200 0 199 200 0 199 1 1 1 10 10 93.65 117.969
;
#X obj 260 197 / 199;
#X obj 453 197 / 199;
#X floatatom 260 226 5 0 0 0 - - -;
#X floatatom 453 226 5 0 0 0 - - -;
#X obj 260 284 s pan-AB;
#X obj 453 284 s filter;
#X obj 332 283 s x;
#X obj 521 283 s y;
#X obj 260 -212 unpack f f;
#X floatatom 260 -146 5 0 0 0 - - -;
#X floatatom 327 -149 5 0 0 0 - - -;
#X obj 260 -103 pack f f, f 10;
#X msg 260 -74 goto \$1 \$2;
#X msg 376 -110 bang;
#X obj 260 -181 * 199;
#X obj 327 -181 * 199;
#X obj 260 -237 r xy-pos;
#X obj 404 356 outlet;
#X obj 590 350 outlet;
#X obj 453 254 t f f f f, f 20;
#X obj 260 254 t f f f f, f 21;
#X floatatom 260 496 5 0 0 0 - - -;
#X obj 453 433 t b f;
#X floatatom 710 159 5 0 0 0 - - -;
#X floatatom 936 162 5 0 0 0 - - -;
#X obj 260 810 readsf~;
#X obj 305 767 bng 15 250 50 0 empty empty empty 17 7 0 10 -262144
-1 -1;
#X msg 260 782 open ./instrumento_fiducial/2-IF.wav \, start;
#X msg 1354 499 stop;
#X obj 1273 858 output~;
#X obj 1306 783 line~;
#X obj 260 755 t b b;
#X obj 1321 327 t b b;
#X obj 1287 813 *~;
#X obj 260 680 sel 1, f 16;
#X obj 1203 494 bng 15 250 50 0 empty empty empty 17 7 0 10 -262144
-1 -1;
#X obj 1196 627 bng 15 250 50 0 empty empty empty 17 7 0 10 -262144
-1 -1;
#X obj 260 730 onebang 1;
#X obj 369 722 onebang;
#X obj 710 61 inlet;
#X obj 936 74 inlet;
#X obj 260 471 expr if($f1<$f3 && $f2>$f4 \, 1 \, 0), f 97;
#X obj 1306 744 pack 1 2000;
#X obj 299 540 r allow-cycle-end;
#X obj 260 616 spigot;
#X obj 299 588 tgl 15 0 empty empty empty 17 7 0 10 -262144 -1 -1 1
1;
#X msg 299 565 1;
#X obj 197 543 r reset-all;
#X msg 197 568 0;
#X obj 1321 429 pack 0 1000;
#X obj 1353 373 del 1000;
#X obj 1198 680 t b b, f 37;
#X msg 1454 721 \; id1 symbol oo1;
#X obj 1321 81 r reset-all;
#X obj 1321 123 bng 15 250 50 0 empty empty empty 17 7 0 10 -262144
-1 -1;
#X obj 66 672 r end-cycle;
#X obj 66 777 s reset-all;
#X obj 66 747 spigot;
#X obj 105 726 tgl 15 0 empty empty empty 17 7 0 10 -262144 -1 -1 0
1;
#X msg 172 723 1;
#X msg 180 681 0;
#X obj 1353 398 t b b b, f 12;
#X obj 66 713 bng 15 250 50 0 empty empty empty 17 7 0 10 -262144 -1
-1;
#X msg 1434 455 \; id1 symbol 100 \, symbol o11;
#X obj 1354 181 del 1000;
#X obj 1321 143 t b b b;
#X connect 0 0 1 0;
#X connect 0 1 2 0;
#X connect 1 0 3 0;
#X connect 2 0 4 0;
#X connect 3 0 21 0;
#X connect 4 0 20 0;
#X connect 9 0 15 0;
#X connect 9 1 16 0;
#X connect 10 0 12 0;
#X connect 11 0 12 1;
#X connect 11 0 14 0;
#X connect 12 0 13 0;
#X connect 13 0 0 0;
#X connect 14 0 10 0;
#X connect 15 0 10 0;
#X connect 16 0 11 0;
#X connect 17 0 9 0;
#X connect 20 0 23 0;
#X connect 20 1 6 0;
#X connect 20 2 8 0;
#X connect 20 3 19 0;
#X connect 21 0 42 0;
#X connect 21 1 5 0;
#X connect 21 2 7 0;
#X connect 21 3 18 0;
#X connect 22 0 45 0;
#X connect 23 0 42 0;
#X connect 23 1 42 1;
#X connect 24 0 42 2;
#X connect 25 0 42 3;
#X connect 26 0 34 0;
#X connect 26 1 27 0;
#X connect 27 0 28 0;
#X connect 28 0 26 0;
#X connect 29 0 26 0;
#X connect 31 0 34 1;
#X connect 32 0 28 0;
#X connect 32 1 52 0;
#X connect 33 0 50 0;
#X connect 33 1 51 0;
#X connect 34 0 30 0;
#X connect 34 0 30 1;
#X connect 35 0 38 0;
#X connect 35 1 39 0;
#X connect 36 0 33 0;
#X connect 37 0 52 0;
#X connect 38 0 32 0;
#X connect 38 0 39 1;
#X connect 38 0 60 0;
#X connect 39 0 33 0;
#X connect 39 0 61 0;
#X connect 40 0 24 0;
#X connect 41 0 25 0;
#X connect 42 0 22 0;
#X connect 43 0 31 0;
#X connect 44 0 47 0;
#X connect 45 0 35 0;
#X connect 46 0 45 1;
#X connect 47 0 46 0;
#X connect 48 0 49 0;
#X connect 49 0 46 0;
#X connect 50 0 31 0;
#X connect 51 0 62 0;
#X connect 52 0 43 0;
#X connect 52 1 53 0;
#X connect 54 0 55 0;
#X connect 55 0 66 0;
#X connect 56 0 63 0;
#X connect 58 0 57 0;
#X connect 59 0 58 1;
#X connect 60 0 59 0;
#X connect 61 0 59 0;
#X connect 62 0 38 1;
#X connect 62 1 29 0;
#X connect 62 2 64 0;
#X connect 63 0 58 0;
#X connect 65 0 29 0;
#X connect 66 0 50 0;
#X connect 66 1 65 0;
#X connect 66 2 61 0;
#X coords 0 -1 1 1 204 227 1 258 -36;
#X restore 22 38 pd position;
#N canvas 0 59 1920 983 saved_states 0;
#X floatatom 425 207 5 0 0 0 - - -;
#X floatatom 493 207 5 0 0 0 - - -;
#X obj 425 109 r spacial-state;
#X floatatom 562 207 5 0 0 0 - - -;
#X obj 699 110 r spacial-state;
#X obj 994 109 r spacial-state;
#X obj 1255 111 r spacial-state;
#X obj 583 -24 hradio 15 0 0 4 empty empty empty 0 -8 0 10 -262144
-1 -1 0;
#X obj 466 -119 cup;
#X msg 547 -165 0;
#X obj 465 -142 bng 15 250 50 0 empty empty empty 17 7 0 10 -261234
-1 -1;
#X floatatom 466 -69 5 0 0 0 - - -;
#X obj 466 -94 % 4;
#X floatatom 699 207 5 0 0 0 - - -;
#X floatatom 767 207 5 0 0 0 - - -;
#X floatatom 836 207 5 0 0 0 - - -;
#X floatatom 994 207 5 0 0 0 - - -;
#X floatatom 1062 207 5 0 0 0 - - -;
#X floatatom 1131 207 5 0 0 0 - - -;
#X floatatom 1255 207 5 0 0 0 - - -;
#X floatatom 1323 207 5 0 0 0 - - -;
#X floatatom 1392 207 5 0 0 0 - - -;
#X obj 425 178 unpack f f f f, f 29;
#X floatatom 625 385 5 0 0 0 - - -;
#X obj 699 178 unpack f f f f, f 30;
#X floatatom 905 385 5 0 0 0 - - -;
#X obj 994 178 unpack f f f f, f 29;
#X floatatom 1194 407 5 0 0 0 - - -;
#X obj 1255 178 unpack f f f f, f 30;
#X floatatom 1462 407 5 0 0 0 - - -;
#X obj 727 472 inlet;
#X obj 796 471 inlet;
#X obj 727 550 expr ($f3 - $f1) + ($f4 - $f2);
#X floatatom 727 575 5 0 0 0 - - -;
#X obj 727 629 / 2;
#X floatatom 727 679 5 0 0 0 - - -;
#X obj 727 653 expr 1 - pow($f1 \, 1/2.);
#X obj 425 138 spoggle 0, f 23;
#X obj 699 139 spoggle 1, f 25;
#X obj 994 138 spoggle 2, f 24;
#X obj 1255 140 spoggle 3, f 28;
#X obj 547 -204 loadbang;
#X obj 583 -3 t f f f f, f 124;
#X floatatom 727 498 5 0 0 0 - - -;
#X floatatom 796 497 5 0 0 0 - - -;
#X obj 822 743 s to-mixer;
#X obj 547 -139 t b f;
#X obj 583 -59 loadbang;
#X obj 796 521 t b f;
#X obj 727 599 abs;
#X msg 85 536 set \$1;
#X msg 36 556 0;
#X obj 36 608 bng 15 250 50 0 empty empty empty 17 7 0 10 -262144 -1
-1;
#X obj 727 703 t f f, f 14;
#X obj 727 1055 line;
#X floatatom 727 1080 5 0 0 0 - - -;
#X obj 759 1158 bng 15 250 50 0 empty empty empty 17 7 0 10 -262144
-1 -1;
#X msg 89 871 set \$1;
#X msg 45 891 0;
#X obj 45 943 bng 15 250 50 0 empty empty empty 17 7 0 10 -262144 -1
-1;
#X msg 400 853 set \$1;
#X msg 352 873 0;
#X obj 352 925 bng 15 250 50 0 empty empty empty 17 7 0 10 -262144
-1 -1;
#X obj 759 1178 cup;
#X obj 759 1209 hradio 15 1 0 4 empty empty empty 0 -8 0 10 -262144
-1 -1 2;
#X obj 759 1254 sel 0;
#X obj 807 1255 sel 1;
#X obj 727 935 spigot;
#X obj 766 915 tgl 15 0 empty empty empty 17 7 0 10 -262144 -1 -1 0
1;
#X msg 766 886 1;
#X obj 919 870 r reset-all;
#X msg 919 895 0;
#X obj 138 220 r start-stage-3;
#X obj 138 282 bng 15 250 50 0 empty empty empty 17 7 0 10 -262144
-1 -1;
#X obj 138 352 cup;
#X msg 182 333 0;
#X floatatom 138 377 5 0 0 0 - - -;
#X msg 138 441 2;
#X msg 182 442 3;
#X msg 227 442 4;
#X obj 138 466 t b f;
#X obj 182 467 t b f;
#X obj 227 467 t b f;
#X obj 36 581 sel 2;
#X obj 45 916 sel 3;
#X obj 352 898 sel 4;
#X msg 295 658 0;
#X obj 855 1255 sel 2;
#X obj 138 401 sel 1 2 3 0, f 26;
#X obj 272 474 bng 15 250 50 0 empty empty empty 17 7 0 10 -262144
-1 -1;
#X obj 138 245 t b b, f 41;
#X obj 422 282 bng 15 250 50 0 empty empty empty 17 7 0 10 -262144
-1 -1;
#X obj 766 858 spigot;
#X obj 805 830 tgl 15 0 empty empty empty 17 7 0 10 -262144 -1 -1 1
1;
#X msg 879 810 0;
#X msg 805 778 1;
#X obj 319 315 r reset-the-play;
#X obj 68 612 s allow-cycle-end;
#X obj 77 951 s allow-cycle-end;
#X obj 1094 1047 s allow-cycle-end;
#X obj 384 935 s allow-cycle-end;
#X obj 272 433 t b b;
#X obj 304 460 s allow-cycle-end;
#X obj 466 30 s states-counter;
#X obj 466 -44 t f f;
#X obj 1087 789 s start-stage-3;
#X obj 1082 768 bng 15 250 50 0 empty empty empty 17 7 0 10 -262144
-1 -1;
#X obj 1207 770 bng 15 250 50 0 empty empty empty 17 7 0 10 -262144
-1 -1;
#X obj 1207 790 s reset-all;
#X floatatom 913 506 5 0 0 0 - - -;
#X floatatom 989 506 5 0 0 0 - - -;
#X obj 913 530 t b f;
#X obj 989 530 t b f;
#X obj 758 1333 bng 15 250 50 0 empty empty empty 17 7 0 10 -262144
-1 -1;
#X obj 813 1333 bng 15 250 50 0 empty empty empty 17 7 0 10 -262144
-1 -1;
#X obj 855 1305 bng 15 250 50 0 empty empty empty 17 7 0 10 -262144
-1 -1;
#X obj 1298 789 s reset-the-play;
#X obj 1298 765 bng 15 250 50 0 empty empty empty 17 7 0 10 -262144
-1 -1;
#X msg 889 1158 0;
#X obj 889 1124 r reset-all;
#X obj 759 1229 t f f f, f 21;
#X obj 727 958 t f b b, f 19;
#X obj 857 995 s change-mixer-state;
#X obj 727 1116 s to-mixer2;
#X obj 759 989 del 5000;
#X obj 727 1018 pack f 5000;
#X obj 297 -162 r end-cycle;
#X obj 625 409 s first-id;
#X obj 905 409 s second-id;
#X obj 1194 431 s third-id;
#X obj 1462 431 s fourth-id;
#X obj 36 658 t b b b b;
#X obj 45 993 t b b b b;
#X obj 352 975 t b b b b;
#X obj 642 -185 r reset-the-play;
#X obj 583 -93 r reset-the-play;
#X connect 0 0 109 0;
#X connect 1 0 110 0;
#X connect 2 0 37 0;
#X connect 4 0 38 0;
#X connect 5 0 39 0;
#X connect 6 0 40 0;
#X connect 7 0 42 0;
#X connect 8 0 12 0;
#X connect 9 0 46 0;
#X connect 10 0 8 0;
#X connect 11 0 104 0;
#X connect 12 0 11 0;
#X connect 13 0 109 0;
#X connect 14 0 110 0;
#X connect 16 0 109 0;
#X connect 17 0 110 0;
#X connect 19 0 109 0;
#X connect 20 0 110 0;
#X connect 22 0 0 0;
#X connect 22 1 1 0;
#X connect 22 2 3 0;
#X connect 22 3 23 0;
#X connect 23 0 127 0;
#X connect 24 0 13 0;
#X connect 24 1 14 0;
#X connect 24 2 15 0;
#X connect 24 3 25 0;
#X connect 25 0 128 0;
#X connect 26 0 16 0;
#X connect 26 1 17 0;
#X connect 26 2 18 0;
#X connect 26 3 27 0;
#X connect 27 0 129 0;
#X connect 28 0 19 0;
#X connect 28 1 20 0;
#X connect 28 2 21 0;
#X connect 28 3 29 0;
#X connect 29 0 130 0;
#X connect 30 0 43 0;
#X connect 31 0 44 0;
#X connect 32 0 33 0;
#X connect 33 0 49 0;
#X connect 34 0 36 0;
#X connect 35 0 53 0;
#X connect 36 0 35 0;
#X connect 37 0 22 0;
#X connect 38 0 24 0;
#X connect 39 0 26 0;
#X connect 40 0 28 0;
#X connect 41 0 9 0;
#X connect 42 0 37 1;
#X connect 42 1 38 1;
#X connect 42 2 39 1;
#X connect 42 3 40 1;
#X connect 43 0 32 0;
#X connect 44 0 48 0;
#X connect 46 0 8 0;
#X connect 46 1 8 0;
#X connect 47 0 7 0;
#X connect 48 0 32 0;
#X connect 48 1 32 1;
#X connect 49 0 34 0;
#X connect 50 0 51 0;
#X connect 51 0 83 0;
#X connect 52 0 131 0;
#X connect 53 0 67 0;
#X connect 53 1 45 0;
#X connect 54 0 55 0;
#X connect 55 0 123 0;
#X connect 56 0 63 0;
#X connect 57 0 58 0;
#X connect 58 0 84 0;
#X connect 59 0 132 0;
#X connect 60 0 61 0;
#X connect 61 0 85 0;
#X connect 62 0 133 0;
#X connect 63 0 64 0;
#X connect 64 0 120 0;
#X connect 65 0 113 0;
#X connect 66 0 114 0;
#X connect 67 0 121 0;
#X connect 68 0 67 1;
#X connect 69 0 68 0;
#X connect 70 0 71 0;
#X connect 71 0 68 0;
#X connect 72 0 90 0;
#X connect 73 0 74 0;
#X connect 74 0 76 0;
#X connect 75 0 74 0;
#X connect 76 0 88 0;
#X connect 77 0 80 0;
#X connect 78 0 81 0;
#X connect 79 0 82 0;
#X connect 80 0 51 0;
#X connect 80 1 50 0;
#X connect 81 0 51 0;
#X connect 81 1 57 0;
#X connect 82 0 51 0;
#X connect 82 1 60 0;
#X connect 83 0 52 0;
#X connect 83 1 97 0;
#X connect 84 0 59 0;
#X connect 84 1 98 0;
#X connect 85 0 62 0;
#X connect 85 1 100 0;
#X connect 86 0 50 0;
#X connect 86 0 60 0;
#X connect 86 0 57 0;
#X connect 87 0 115 0;
#X connect 88 0 77 0;
#X connect 88 1 78 0;
#X connect 88 2 79 0;
#X connect 88 3 101 0;
#X connect 89 0 95 0;
#X connect 90 0 73 0;
#X connect 90 1 91 0;
#X connect 91 0 92 0;
#X connect 92 0 69 0;
#X connect 93 0 92 1;
#X connect 94 0 93 0;
#X connect 95 0 93 0;
#X connect 96 0 75 0;
#X connect 96 0 86 0;
#X connect 96 0 94 0;
#X connect 101 0 89 0;
#X connect 101 1 102 0;
#X connect 104 0 103 0;
#X connect 104 1 7 0;
#X connect 106 0 105 0;
#X connect 107 0 108 0;
#X connect 109 0 111 0;
#X connect 110 0 112 0;
#X connect 111 0 32 0;
#X connect 111 1 32 2;
#X connect 112 0 32 0;
#X connect 112 1 32 3;
#X connect 113 0 58 0;
#X connect 114 0 61 0;
#X connect 115 0 99 0;
#X connect 117 0 116 0;
#X connect 118 0 63 0;
#X connect 119 0 118 0;
#X connect 120 0 65 0;
#X connect 120 1 66 0;
#X connect 120 2 87 0;
#X connect 121 0 125 0;
#X connect 121 1 124 0;
#X connect 121 2 122 0;
#X connect 124 0 56 0;
#X connect 125 0 54 0;
#X connect 126 0 10 0;
#X connect 131 0 32 0;
#X connect 131 1 13 0;
#X connect 131 2 14 0;
#X connect 131 3 25 0;
#X connect 132 0 32 0;
#X connect 132 1 16 0;
#X connect 132 2 17 0;
#X connect 132 3 27 0;
#X connect 133 0 32 0;
#X connect 133 1 19 0;
#X connect 133 2 20 0;
#X connect 133 3 29 0;
#X connect 134 0 9 0;
#X connect 135 0 7 0;
#X restore 116 13 pd saved_states;
#X obj 480 492 dac~ 1 2 3 4, f 18;
#N canvas 0 59 1920 983 aruco_ids 0;
#X obj 4 6 mrpeach/udpreceive 9007;
#X obj 4 37 mrpeach/unpackOSC;
#X obj 4 70 mrpeach/routeOSC /id;
#N canvas 0 59 960 983 value-routing 0;
#X obj 46 40 inlet;
#X floatatom 46 325 5 0 0 0 - - -;
#X floatatom 127 325 5 0 0 0 - - -;
#X obj 46 275 unpack f f, f 12;
#X obj 46 110 mrpeach/routeOSC /pos /rot, f 47;
#X floatatom 209 185 5 0 0 0 - - -;
#X obj 209 215 abs;
#X obj 209 244 / 3.141;
#X obj 406 40 inlet;
#X floatatom 406 325 5 0 0 0 - - -;
#X floatatom 487 325 5 0 0 0 - - -;
#X obj 406 275 unpack f f, f 12;
#X obj 406 110 mrpeach/routeOSC /pos /rot, f 47;
#X floatatom 569 185 5 0 0 0 - - -;
#X obj 569 215 abs;
#X obj 569 244 / 3.141;
#X obj 766 40 inlet;
#X obj 766 110 mrpeach/routeOSC /pos /rot, f 47;
#X obj 487 443 t b f;
#X obj 569 273 t b f;
#X obj 46 349 / 640;
#X obj 127 349 / 480;
#X obj 406 411 / 640;
#X obj 487 410 / 480;
#X floatatom 78 372 5 0 0 0 - x-res -;
#X floatatom 157 373 5 0 0 0 - y-res -;
#X floatatom 438 382 5 0 0 0 - x-res -;
#X floatatom 519 378 5 0 0 0 - y-res -;
#X floatatom 766 325 5 0 0 0 - - -;
#X floatatom 847 325 5 0 0 0 - - -;
#X obj 766 275 unpack f f, f 12;
#X floatatom 929 185 5 0 0 0 - - -;
#X obj 929 215 abs;
#X obj 929 244 / 3.141;
#X obj 847 443 t b f;
#X obj 929 273 t b f;
#X obj 766 411 / 640;
#X obj 847 410 / 480;
#X floatatom 798 382 5 0 0 0 - x-res -;
#X floatatom 879 378 5 0 0 0 - y-res -;
#X floatatom 46 413 5 0 0 0 - - -;
#X floatatom 127 413 5 0 0 0 - - -;
#X obj 46 437 pack f f, f 12;
#X obj 46 462 s xy-pos;
#X obj 406 522 s spacial-state1;
#X obj 996 610 inlet;
#X floatatom 406 845 5 0 0 0 - - -;
#X floatatom 487 845 5 0 0 0 - - -;
#X obj 406 795 unpack f f, f 12;
#X obj 406 630 mrpeach/routeOSC /pos /rot, f 47;
#X floatatom 569 705 5 0 0 0 - - -;
#X obj 569 735 abs;
#X obj 569 764 / 3.141;
#X obj 1061 610 inlet;
#X obj 766 630 mrpeach/routeOSC /pos /rot, f 47;
#X obj 487 963 t b f;
#X obj 569 793 t b f;
#X obj 406 931 / 640;
#X obj 487 930 / 480;
#X floatatom 438 902 5 0 0 0 - x-res -;
#X floatatom 519 898 5 0 0 0 - y-res -;
#X floatatom 766 845 5 0 0 0 - - -;
#X floatatom 847 845 5 0 0 0 - - -;
#X obj 766 795 unpack f f, f 12;
#X floatatom 929 705 5 0 0 0 - - -;
#X obj 929 735 abs;
#X obj 929 764 / 3.141;
#X obj 847 963 t b f;
#X obj 929 793 t b f;
#X obj 766 931 / 640;
#X obj 847 930 / 480;
#X floatatom 798 902 5 0 0 0 - x-res -;
#X floatatom 879 898 5 0 0 0 - y-res -;
#X obj 406 495 t a a, f 20;
#X obj 543 521 s spacial-state;
#X obj 766 497 t a a, f 20;
#X obj 903 523 s spacial-state;
#X obj 766 524 s spacial-state2;
#X obj 406 1016 t a a, f 20;
#X obj 543 1042 s spacial-state;
#X obj 406 1043 s spacial-state3;
#X obj 766 1016 t a a, f 20;
#X obj 903 1042 s spacial-state;
#X obj 766 1043 s spacial-state4;
#X obj 406 473 pack f f f 1, f 23;
#X obj 766 473 pack f f f 2, f 23;
#X obj 406 993 pack f f f 3, f 23;
#X obj 766 993 pack f f f 4, f 23;
#X connect 0 0 4 0;
#X connect 1 0 20 0;
#X connect 2 0 21 0;
#X connect 3 0 1 0;
#X connect 3 1 2 0;
#X connect 4 0 3 0;
#X connect 4 1 5 0;
#X connect 5 0 6 0;
#X connect 6 0 7 0;
#X connect 8 0 12 0;
#X connect 9 0 22 0;
#X connect 10 0 23 0;
#X connect 11 0 9 0;
#X connect 11 1 10 0;
#X connect 12 0 11 0;
#X connect 12 1 13 0;
#X connect 13 0 14 0;
#X connect 14 0 15 0;
#X connect 15 0 19 0;
#X connect 16 0 17 0;
#X connect 17 0 30 0;
#X connect 17 1 31 0;
#X connect 18 0 84 0;
#X connect 18 1 84 1;
#X connect 19 0 84 0;
#X connect 19 1 84 2;
#X connect 20 0 40 0;
#X connect 21 0 41 0;
#X connect 22 0 84 0;
#X connect 23 0 18 0;
#X connect 24 0 20 1;
#X connect 25 0 21 1;
#X connect 26 0 22 1;
#X connect 27 0 23 1;
#X connect 28 0 36 0;
#X connect 29 0 37 0;
#X connect 30 0 28 0;
#X connect 30 1 29 0;
#X connect 31 0 32 0;
#X connect 32 0 33 0;
#X connect 33 0 35 0;
#X connect 34 0 85 0;
#X connect 34 1 85 1;
#X connect 35 0 85 0;
#X connect 35 1 85 2;
#X connect 36 0 85 0;
#X connect 37 0 34 0;
#X connect 38 0 36 1;
#X connect 39 0 37 1;
#X connect 40 0 42 0;
#X connect 41 0 42 1;
#X connect 42 0 43 0;
#X connect 45 0 49 0;
#X connect 46 0 57 0;
#X connect 47 0 58 0;
#X connect 48 0 46 0;
#X connect 48 1 47 0;
#X connect 49 0 48 0;
#X connect 49 1 50 0;
#X connect 50 0 51 0;
#X connect 51 0 52 0;
#X connect 52 0 56 0;
#X connect 53 0 54 0;
#X connect 54 0 63 0;
#X connect 54 1 64 0;
#X connect 55 0 86 0;
#X connect 55 1 86 1;
#X connect 56 0 86 0;
#X connect 56 1 86 2;
#X connect 57 0 86 0;
#X connect 58 0 55 0;
#X connect 59 0 57 1;
#X connect 60 0 58 1;
#X connect 61 0 69 0;
#X connect 62 0 70 0;
#X connect 63 0 61 0;
#X connect 63 1 62 0;
#X connect 64 0 65 0;
#X connect 65 0 66 0;
#X connect 66 0 68 0;
#X connect 67 0 87 0;
#X connect 67 1 87 1;
#X connect 68 0 87 0;
#X connect 68 1 87 2;
#X connect 69 0 87 0;
#X connect 70 0 67 0;
#X connect 71 0 69 1;
#X connect 72 0 70 1;
#X connect 73 0 44 0;
#X connect 73 1 74 0;
#X connect 75 0 77 0;
#X connect 75 1 76 0;
#X connect 78 0 80 0;
#X connect 78 1 79 0;
#X connect 81 0 83 0;
#X connect 81 1 82 0;
#X connect 84 0 73 0;
#X connect 85 0 75 0;
#X connect 86 0 78 0;
#X connect 87 0 81 0;
#X restore 4 647 pd value-routing;
#X f 226;
#X obj 4 185 aruco, f 7;
#X obj 130 191 bng 31 250 50 0 id1-loadbang empty ID1-LOADBANG 34 22
0 10 -159680 -1 -1;
#X obj 233 410 bng 15 250 50 0 end-cycle empty end-cycle 17 7 0 10
-262144 -1 -1;
#X obj 398 184 aruco, f 7;
#X obj 792 184 aruco, f 7;
#X obj 627 408 bng 15 250 50 0 start-stage-3 empty To 17 7 0 10 -262144
-1 -1;
#X obj 1020 408 bng 15 250 50 0 start-stage-3 empty To 17 7 0 10 -262144
-1 -1;
#X obj 524 191 bng 31 250 50 0 id2-loadbang empty ID2-LOADBANG 34 22
0 10 -159680 -1 -1;
#X obj 233 454 t b b;
#X obj 225 165 r id1;
#X obj 619 164 r id2;
#X obj 265 512 s id1;
#X obj 1012 164 r id3;
#X obj 7 837 bng 15 250 50 0 empty empty empty 17 7 0 10 -262144 -1
-1;
#X obj 7 803 loadbang;
#X msg 7 861 symbol cant-start;
#X msg 233 537 symbol 100;
#X obj 233 595 s id2;
#X obj 285 595 s id3;
#X obj 5 685 r id2-loadbang;
#X msg 5 714 symbol cant-start;
#X msg 264 483 symbol 100 \, symbol cant-start;
#X obj 627 616 s id1;
#X msg 627 592 symbol can-start \, symbol o11;
#X msg 757 484 \; id2 symbol 100;
#X obj 692 493 del 1;
#X msg 692 528 \; id2 symbol o11;
#X obj 627 453 t b b b, f 19;
#X obj 1020 616 s id1;
#X msg 1020 592 symbol can-start \, symbol o11;
#X obj 1085 493 del 1;
#X obj 1020 453 t b b b, f 19;
#X msg 1085 528 \; id3 symbol o11;
#X msg 1150 484 \; id3 symbol 100;
#X obj 4 95 mrpeach/routeOSC /1 /2 /3 /4 /5, f 282;
#X obj 1186 184 aruco, f 7;
#X obj 1414 408 bng 15 250 50 0 start-stage-3 empty To 17 7 0 10 -262144
-1 -1;
#X obj 1414 616 s id1;
#X msg 1414 592 symbol can-start \, symbol o11;
#X obj 1479 493 del 1;
#X obj 1414 453 t b b b, f 19;
#X obj 1580 184 aruco, f 7;
#X obj 1808 408 bng 15 250 50 0 start-stage-3 empty To 17 7 0 10 -262144
-1 -1;
#X obj 1808 616 s id1;
#X msg 1808 592 symbol can-start \, symbol o11;
#X obj 1873 493 del 1;
#X obj 1808 453 t b b b, f 19;
#X msg 1938 484 \; id5 symbol 100;
#X msg 1873 528 \; id5 symbol o11;
#X msg 1544 484 \; id4 symbol 100;
#X msg 1479 528 \; id4 symbol o11;
#X obj 5 772 s id3;
#X obj 5 743 t a a a, f 15;
#X obj 56 772 s id4;
#X obj 107 772 s id5;
#X msg 161 711 symbol cant-start;
#X obj 161 740 t a a a, f 15;
#X obj 212 769 s id4;
#X obj 263 769 s id5;
#X obj 161 682 r id3-loadbang;
#X msg 317 713 symbol cant-start;
#X obj 317 742 t a a a, f 15;
#X obj 419 771 s id5;
#X msg 473 710 symbol cant-start;
#X obj 473 739 t a a a, f 15;
#X obj 317 684 r id4-loadbang;
#X obj 473 681 r id5-loadbang;
#X obj 317 771 s id2;
#X obj 368 771 s id3;
#X obj 161 769 s id2;
#X obj 473 768 s id2;
#X obj 575 768 s id4;
#X obj 524 768 s id3;
#X obj 1312 191 bng 31 250 50 0 id4-loadbang empty ID4-LOADBANG 34
22 0 10 -159680 -1 -1;
#X obj 1706 191 bng 31 250 50 0 id5-loadbang empty ID5-LOADBANG 34
22 0 10 -159680 -1 -1;
#X obj 1406 164 r id4;
#X obj 1802 164 r id5;
#X obj 233 566 t a a a a, f 23;
#X obj 338 595 s id4;
#X obj 391 595 s id5;
#X obj 7 921 s id2;
#X obj 66 921 s id3;
#X obj 7 892 t a a a a, f 26;
#X obj 186 921 s id5;
#X obj 126 921 s id4;
#X obj 918 191 bng 31 250 50 0 id3-loadbang empty ID3-LOADBANG 34 22
0 10 -159680 -1 -1;
#X connect 0 0 1 0;
#X connect 1 0 2 0;
#X connect 2 0 38 0;
#X connect 4 0 3 0;
#X connect 4 1 5 0;
#X connect 4 2 6 0;
#X connect 6 0 12 0;
#X connect 7 0 3 1;
#X connect 7 1 11 0;
#X connect 7 2 9 0;
#X connect 8 0 3 2;
#X connect 8 1 89 0;
#X connect 8 2 10 0;
#X connect 9 0 31 0;
#X connect 10 0 35 0;
#X connect 12 0 20 0;
#X connect 12 1 25 0;
#X connect 13 0 4 1;
#X connect 14 0 7 1;
#X connect 16 0 8 1;
#X connect 17 0 19 0;
#X connect 18 0 17 0;
#X connect 19 0 86 0;
#X connect 20 0 81 0;
#X connect 23 0 24 0;
#X connect 24 0 56 0;
#X connect 25 0 15 0;
#X connect 27 0 26 0;
#X connect 29 0 30 0;
#X connect 31 0 27 0;
#X connect 31 1 29 0;
#X connect 31 2 28 0;
#X connect 33 0 32 0;
#X connect 34 0 36 0;
#X connect 35 0 33 0;
#X connect 35 1 34 0;
#X connect 35 2 37 0;
#X connect 38 0 4 0;
#X connect 38 1 7 0;
#X connect 38 2 8 0;
#X connect 38 3 39 0;
#X connect 38 4 45 0;
#X connect 39 0 3 3;
#X connect 39 1 77 0;
#X connect 39 2 40 0;
#X connect 40 0 44 0;
#X connect 42 0 41 0;
#X connect 43 0 54 0;
#X connect 44 0 42 0;
#X connect 44 1 43 0;
#X connect 44 2 53 0;
#X connect 45 0 3 4;
#X connect 45 1 78 0;
#X connect 45 2 46 0;
#X connect 46 0 50 0;
#X connect 48 0 47 0;
#X connect 49 0 52 0;
#X connect 50 0 48 0;
#X connect 50 1 49 0;
#X connect 50 2 51 0;
#X connect 56 0 55 0;
#X connect 56 1 57 0;
#X connect 56 2 58 0;
#X connect 59 0 60 0;
#X connect 60 0 73 0;
#X connect 60 1 61 0;
#X connect 60 2 62 0;
#X connect 63 0 59 0;
#X connect 64 0 65 0;
#X connect 65 0 71 0;
#X connect 65 1 72 0;
#X connect 65 2 66 0;
#X connect 67 0 68 0;
#X connect 68 0 74 0;
#X connect 68 1 76 0;
#X connect 68 2 75 0;
#X connect 69 0 64 0;
#X connect 70 0 67 0;
#X connect 79 0 39 1;
#X connect 80 0 45 1;
#X connect 81 0 21 0;
#X connect 81 1 22 0;
#X connect 81 2 82 0;
#X connect 81 3 83 0;
#X connect 86 0 84 0;
#X connect 86 1 85 0;
#X connect 86 2 88 0;
#X connect 86 3 87 0;
#X restore 22 12 pd aruco_ids;
#X obj 481 410 expr~ ($v1 * $f5) \; ($v2 * $f6) \; ($v3 * $f7) \; ($v4
* $f8) \;;
#X obj 551 321 expr $f1 \; $f2 \; $f3 \; $f4 \;, f 8;
#X text 625 332 <-placeholder: cambialo a audio_pan;
#N canvas 640 407 1280 635 mixer 1;
#X obj 50 44 inlet~;
#X obj 103 114 inlet~;
#X obj 158 122 inlet~;
#X obj 213 138 inlet~;
#X obj 269 148 inlet~;
#X obj 50 308 expr~ $v1 * $f6 \; $v2 * $f7 \; $v3 * $f8 \; $v4 * $f9
\; $v5 * $f10 \;, f 71;
#X obj 51 608 outlet~;
#X obj 151 602 outlet~;
#X floatatom 324 44 5 0 0 0 - - -;
#X floatatom 379 104 5 0 0 0 - - -;
#X floatatom 434 125 5 0 0 0 - - -;
#X floatatom 489 145 5 0 0 0 - - -;
#X floatatom 553 155 5 0 0 0 - - -;
#X obj 172 436 expr~ ($v1 + $v2 + $v3 + $v4) * $f5, f 72;
#X obj 656 -189 r to-mixer;
#X obj 881 -294 hradio 15 1 0 4 empty states-counter empty 0 -8 0 10
-262144 -1 -1 0;
#X obj 379 22 r id2-loadbang;
#X msg 379 47 0.5;
#X msg 434 74 0.5;
#X msg 489 105 0.5;
#X msg 544 128 0.5;
#X obj 434 49 r id3-loadbang;
#X obj 489 80 r id4-loadbang;
#X obj 544 103 r id5-loadbang;
#X obj 196 471 audio_pan;
#X obj 324 -7 r id1-loadbang;
#X msg 324 18 0.5;
#X obj 50 508 expr~ ($v1 + $v2) * $f3 \; ($v1 + $v2) * $f4, f 15;
#X obj 83 455 spigot~;
#X obj 129 437 tgl 15 0 empty empty empty 17 7 0 10 -262144 -1 -1 0
1;
#X obj 129 411 loadbang;
#X obj 680 544 bng 15 250 50 0 empty empty empty 17 7 0 10 -262144
-1 -1;
#X obj 544 547 onebang 1;
#X obj 801 398 spigot, f 12;
#X obj 882 374 tgl 15 0 empty empty empty 17 7 0 10 -262144 -1 -1 1
1;
#X msg 1038 339 0;
#X msg 882 336 1;
#X obj 899 231 r reset-all;
#X msg 673 345 1;
#X obj 673 291 loadbang;
#X obj 882 311 r start-stage-3;
#X obj 680 493 r reset-the-play;
#X obj 716 -338 r change-mixer-state;
#X obj 716 -312 bng 15 250 50 0 empty empty empty 17 7 0 10 -262144
-1 -1;
#X msg 716 -292 1;
#X obj 899 256 t b b;
#X obj 737 -190 r to-mixer2;
#X obj 716 -262 hradio 15 1 0 2 empty empty empty 0 -8 0 10 -262144
-1 -1 0;
#X obj 656 -164 spoggle 0;
#X obj 737 -165 spoggle 1;
#X msg 680 564 0;
#X obj 716 -242 t f f, f 12;
#X obj 129 700 r test-seqs;
#X obj 314 -149 unpack f f f f f, f 33;
#X obj 314 -177 r mixer-levels;
#X obj 646 -83 r first-id;
#X obj 726 -83 r second-id;
#X obj 817 -82 r third-id;
#X obj 900 -81 r fourth-id;
#X obj 623 -20 spoggle 1;
#X obj 698 -18 spoggle 2;
#X obj 778 -18 spoggle 3;
#X obj 853 -16 spoggle 4;
#X floatatom 623 65 5 0 0 0 - - -;
#X floatatom 698 67 5 0 0 0 - - -;
#X floatatom 778 67 5 0 0 0 - - -;
#X floatatom 853 69 5 0 0 0 - - -;
#X obj 553 179 * 1;
#X obj 489 169 * 1;
#X obj 434 149 * 1;
#X obj 379 128 * 1;
#X obj 324 68 * 1;
#X obj 315 -119 t b f;
#X obj 361 -118 t b f;
#X obj 406 -117 t b f;
#X obj 452 -116 t b f;
#X obj 499 -114 t b f;
#X obj 881 -273 + 1;
#X floatatom 881 -247 5 0 0 0 - - -;
#X obj 629 19 / 1;
#X obj 881 -223 t b f;
#X obj 720 23 / 1;
#X obj 769 23 / 1;
#X obj 847 25 / 1;
#X obj 975 15 r start-stage-3;
#X msg 975 41 1;
#X obj 1099 13 r reset-all;
#X msg 1099 39 0;
#X obj 1026 97 tgl 15 0 empty empty empty 17 7 0 10 -262144 -1 -1 1
1;
#X obj 987 125 spigot;
#X obj 1096 97 tgl 15 0 empty empty empty 17 7 0 10 -262144 -1 -1 1
1;
#X obj 1057 125 spigot;
#X obj 1153 96 tgl 15 0 empty empty empty 17 7 0 10 -262144 -1 -1 1
1;
#X obj 1114 124 spigot;
#X obj 1223 96 tgl 15 0 empty empty empty 17 7 0 10 -262144 -1 -1 1
1;
#X obj 1184 124 spigot;
#X obj 975 67 t b f;
#X msg 578 489 1;
#X connect 0 0 5 0;
#X connect 1 0 5 1;
#X connect 2 0 5 2;
#X connect 3 0 5 3;
#X connect 4 0 5 4;
#X connect 5 0 27 0;
#X connect 5 1 13 0;
#X connect 5 2 13 1;
#X connect 5 3 13 2;
#X connect 5 4 13 3;
#X connect 8 0 71 0;
#X connect 9 0 70 0;
#X connect 10 0 69 0;
#X connect 11 0 68 0;
#X connect 12 0 67 0;
#X connect 13 0 28 0;
#X connect 14 0 48 0;
#X connect 15 0 77 0;
#X connect 16 0 17 0;
#X connect 16 0 32 0;
#X connect 17 0 9 0;
#X connect 18 0 10 0;
#X connect 19 0 11 0;
#X connect 20 0 12 0;
#X connect 21 0 18 0;
#X connect 21 0 32 0;
#X connect 22 0 19 0;
#X connect 22 0 32 0;
#X connect 23 0 20 0;
#X connect 23 0 32 0;
#X connect 24 0 27 2;
#X connect 24 1 27 3;
#X connect 25 0 26 0;
#X connect 26 0 8 0;
#X connect 27 0 6 0;
#X connect 27 1 7 0;
#X connect 28 0 27 1;
#X connect 29 0 28 1;
#X connect 30 0 29 0;
#X connect 31 0 32 1;
#X connect 31 0 50 0;
#X connect 32 0 29 0;
#X connect 34 0 33 1;
#X connect 35 0 34 0;
#X connect 36 0 34 0;
#X connect 37 0 45 0;
#X connect 39 0 38 0;
#X connect 40 0 36 0;
#X connect 41 0 31 0;
#X connect 41 0 97 0;
#X connect 42 0 43 0;
#X connect 43 0 44 0;
#X connect 44 0 47 0;
#X connect 45 0 38 0;
#X connect 45 1 35 0;
#X connect 46 0 49 0;
#X connect 47 0 51 0;
#X connect 48 0 33 0;
#X connect 48 0 59 0;
#X connect 48 0 62 0;
#X connect 48 0 61 0;
#X connect 48 0 60 0;
#X connect 49 0 33 0;
#X connect 49 0 59 0;
#X connect 49 0 62 0;
#X connect 49 0 61 0;
#X connect 49 0 60 0;
#X connect 50 0 47 0;
#X connect 51 0 48 1;
#X connect 51 1 49 1;
#X connect 52 0 29 0;
#X connect 53 0 72 0;
#X connect 53 1 73 0;
#X connect 53 2 74 0;
#X connect 53 3 75 0;
#X connect 53 4 76 0;
#X connect 54 0 53 0;
#X connect 55 0 60 1;
#X connect 55 0 59 1;
#X connect 55 0 61 1;
#X connect 55 0 62 1;
#X connect 56 0 60 1;
#X connect 56 0 59 1;
#X connect 56 0 61 1;
#X connect 56 0 62 1;
#X connect 57 0 60 1;
#X connect 57 0 59 1;
#X connect 57 0 61 1;
#X connect 57 0 62 1;
#X connect 58 0 60 1;
#X connect 58 0 59 1;
#X connect 58 0 61 1;
#X connect 58 0 62 1;
#X connect 59 0 79 0;
#X connect 60 0 81 0;
#X connect 61 0 82 0;
#X connect 62 0 83 0;
#X connect 63 0 89 0;
#X connect 64 0 91 0;
#X connect 65 0 93 0;
#X connect 66 0 95 0;
#X connect 67 0 5 9;
#X connect 68 0 5 8;
#X connect 69 0 5 7;
#X connect 70 0 5 6;
#X connect 71 0 5 5;
#X connect 72 0 71 0;
#X connect 72 1 71 1;
#X connect 73 0 70 0;
#X connect 73 1 70 1;
#X connect 74 0 69 0;
#X connect 74 1 69 1;
#X connect 75 0 68 0;
#X connect 75 1 68 1;
#X connect 76 0 67 0;
#X connect 76 1 67 1;
#X connect 77 0 78 0;
#X connect 78 0 80 0;
#X connect 79 0 63 0;
#X connect 80 0 79 0;
#X connect 80 0 83 0;
#X connect 80 0 82 0;
#X connect 80 0 81 0;
#X connect 80 1 79 1;
#X connect 80 1 83 1;
#X connect 80 1 82 1;
#X connect 80 1 81 1;
#X connect 81 0 64 0;
#X connect 82 0 65 0;
#X connect 83 0 66 0;
#X connect 84 0 85 0;
#X connect 85 0 96 0;
#X connect 86 0 87 0;
#X connect 87 0 88 0;
#X connect 87 0 90 0;
#X connect 87 0 92 0;
#X connect 87 0 94 0;
#X connect 88 0 89 1;
#X connect 89 0 9 0;
#X connect 90 0 91 1;
#X connect 91 0 10 0;
#X connect 92 0 93 1;
#X connect 93 0 11 0;
#X connect 94 0 95 1;
#X connect 95 0 12 0;
#X connect 96 0 63 0;
#X connect 96 0 66 0;
#X connect 96 0 65 0;
#X connect 96 0 64 0;
#X connect 96 1 88 0;
#X connect 96 1 94 0;
#X connect 96 1 92 0;
#X connect 96 1 90 0;
#X connect 97 0 29 0;
#X restore 23 345 pd mixer;
#X f 48;
#X obj 265 -99 cnv 15 140 60 empty empty empty 20 12 0 14 -233017 -66577
0;
#X floatatom 359 -89 5 0 0 0 X-resolution - x-res;
#X floatatom 359 -59 5 0 0 0 Y-resolution - y-res;
#X obj 25 -61 cnv 15 120 60 empty empty empty 20 12 0 14 -233017 -66577
0;
#X floatatom 94 -53 5 0 0 0 end-zone - -;
#X floatatom 94 -27 5 0 0 0 - - -;
#X msg 196 -73 0.2;
#X msg 196 -47 0.9;
#X obj 367 11 s reset-the-play;
#X obj 367 -30 bng 30 250 50 0 empty empty empty 17 7 0 10 -260461
-1 -1;
#X obj 246 11 r reset-the-play;
#X obj 61 -100 loadbang;
#X obj 246 78 s reset-all;
#X obj 246 39 bng 25 250 50 0 empty empty empty 17 7 0 10 -261234 -1
-1;
#X obj 340 140 t b b, f 16;
#X msg 340 169 symbol 100;
#X obj 340 198 s id1;
#X obj 449 227 s id2;
#X msg 449 169 symbol 100 \, symbol cant-start;
#X obj 508 227 s id3;
#X obj 449 198 t a a a a, f 26;
#X obj 628 227 s id5;
#X obj 568 227 s id4;
#X obj 340 79 r reset-all;
#X obj 340 109 bng 20 250 50 0 empty empty empty 17 7 0 10 -261682
-1 -1;
#X obj 466 -59 s test-seqs;
#X msg 422 -92 0;
#X msg 485 -92 1;
#X obj 570 -106 vsl 15 128 0 1 0 0 empty empty empty 0 -9 0 10 -262144
-1 -1 0 1;
#X obj 595 -106 vsl 15 128 0 1 0 0 empty empty empty 0 -9 0 10 -262144
-1 -1 0 1;
#X obj 639 -107 vsl 15 128 0 1 0 0 empty empty empty 0 -9 0 10 -262144
-1 -1 0 1;
#X obj 682 -109 vsl 15 128 0 1 0 0 empty empty empty 0 -9 0 10 -262144
-1 -1 0 1;
#X obj 726 -104 vsl 15 128 0 1 0 0 empty empty empty 0 -9 0 10 -262144
-1 -1 0 1;
#X obj 570 84 pack f f f f f, f 28;
#X obj 570 109 s mixer-levels;
#X obj 639 46 t b f;
#X obj 595 46 t b f;
#X obj 726 47 t b f;
#X obj 682 47 t b f;
#X connect 1 0 12 0;
#X connect 2 0 1 0;
#X connect 2 1 1 1;
#X connect 3 0 4 0;
#X connect 3 1 4 1;
#X connect 3 2 4 2;
#X connect 3 3 4 3;
#X connect 4 0 12 1;
#X connect 4 1 12 2;
#X connect 4 2 12 3;
#X connect 4 3 12 4;
#X connect 5 0 6 0;
#X connect 5 1 6 1;
#X connect 10 0 9 4;
#X connect 10 1 9 5;
#X connect 10 2 9 6;
#X connect 10 3 9 7;
#X connect 12 0 0 0;
#X connect 12 1 0 1;
#X connect 17 0 5 0;
#X connect 18 0 5 1;
#X connect 19 0 17 0;
#X connect 20 0 18 0;
#X connect 22 0 21 0;
#X connect 23 0 26 0;
#X connect 24 0 19 0;
#X connect 24 0 20 0;
#X connect 26 0 25 0;
#X connect 27 0 28 0;
#X connect 27 1 31 0;
#X connect 28 0 29 0;
#X connect 31 0 33 0;
#X connect 33 0 30 0;
#X connect 33 1 32 0;
#X connect 33 2 35 0;
#X connect 33 3 34 0;
#X connect 36 0 37 0;
#X connect 37 0 27 0;
#X connect 39 0 38 0;
#X connect 40 0 38 0;
#X connect 41 0 46 0;
#X connect 42 0 49 0;
#X connect 43 0 48 0;
#X connect 44 0 51 0;
#X connect 45 0 50 0;
#X connect 46 0 47 0;
#X connect 48 0 46 0;
#X connect 48 1 46 2;
#X connect 49 0 46 0;
#X connect 49 1 46 1;
#X connect 50 0 46 0;
#X connect 50 1 46 4;
#X connect 51 0 46 0;
#X connect 51 1 46 3;
