#N canvas 341 29 683 680 12;
#X obj 206 263 r start-stage-2;
#X msg 206 313 0;
#X msg 292 313 1;
#X obj 206 338 s 1-pass?;
#X obj 292 338 s 2-pass?;
#X obj 204 451 s 1-pass?;
#X obj 308 451 s 2-pass?;
#X obj 204 376 r start-stage-3;
#X msg 204 426 1;
#X msg 308 426 0;
#N canvas 207 157 872 552 stage 0;
#X obj 607 330 cnv 15 151 106 empty empty empty 20 12 0 14 -231847
-66577 0;
#X obj 35 141 readsf~;
#X obj 81 98 bng 15 250 50 0 empty empty empty 17 7 0 10 -262144 -1
-1;
#X msg 35 113 open ./ambiente/A-ambiente.wav \, start;
#X obj 123 181 readsf~;
#X obj 169 138 bng 15 250 50 0 empty empty empty 17 7 0 10 -262144
-1 -1;
#X obj 35 437 expr~ ($v1 * $f3) + ($v2 * $f4), f 38;
#X obj 35 466 throw~;
#X msg 123 153 open ./ambiente/B-ambiente.wav \, start;
#X obj 610 17 grid grid1 200 0 199 200 0 199 1 1 1 10 10 684 170;
#X obj 610 226 / 199;
#X obj 803 226 / 199;
#X floatatom 610 255 5 0 0 0 - - -, f 5;
#X floatatom 803 255 5 0 0 0 - - -, f 5;
#X obj 610 283 s pan-AB;
#X obj 803 283 s filter;
#X obj 210 231 r pan-AB;
#X obj 210 260 t f f, f 13;
#X obj 210 289 expr 1 - $f1;
#X obj 210 329 vsl 15 60 0 1 0 0 empty empty empty 0 -9 0 10 -262144
-1 -1 3736 1;
#X obj 298 329 vsl 15 60 0 1 0 0 empty empty empty 0 -9 0 10 -262144
-1 -1 2164 1;
#X obj 38 301 freeverb~;
#X obj 115 301 freeverb~;
#X obj 348 260 t f f, f 22;
#X floatatom 348 318 5 0 0 0 - - -, f 5;
#X floatatom 499 318 5 0 0 0 - - -, f 5;
#X obj 348 289 expr 1 - ($f1 / 2);
#X msg 348 346 dry \$1;
#X msg 499 346 wet \$1;
#X obj 348 231 r filter;
#X obj 348 375 s dry;
#X obj 499 375 s wet;
#X obj 44 222 r dry;
#X obj 44 251 t a a;
#X obj 111 250 t a a;
#X obj 111 221 r wet;
#X obj 613 359 hsl 128 15 0 1 0 0 pan-AB pan-AB empty -2 -8 0 10 -262144
-1 -1 4659 1;
#X obj 613 409 hsl 128 15 0 1 0 0 filter filter empty -2 -8 0 10 -262144
-1 -1 2936 1;
#X text 611 333 pan-AB;
#X text 611 383 filter;
#X obj 81 33 t b b, f 13;
#X obj 81 4 r 1-bang;
#X msg 35 40 stop;
#X obj 35 71 t a a, f 13;
#X obj 35 -22 r reset-all;
#X connect 1 0 21 0;
#X connect 1 0 21 1;
#X connect 1 1 2 0;
#X connect 2 0 3 0;
#X connect 3 0 1 0;
#X connect 4 0 22 0;
#X connect 4 0 22 1;
#X connect 4 1 5 0;
#X connect 5 0 8 0;
#X connect 6 0 7 0;
#X connect 8 0 4 0;
#X connect 9 0 10 0;
#X connect 9 1 11 0;
#X connect 10 0 12 0;
#X connect 11 0 13 0;
#X connect 12 0 14 0;
#X connect 13 0 15 0;
#X connect 16 0 17 0;
#X connect 17 0 18 0;
#X connect 17 1 20 0;
#X connect 18 0 19 0;
#X connect 19 0 6 2;
#X connect 20 0 6 3;
#X connect 21 0 6 0;
#X connect 21 1 6 0;
#X connect 22 0 6 1;
#X connect 22 1 6 1;
#X connect 23 0 26 0;
#X connect 23 1 25 0;
#X connect 24 0 27 0;
#X connect 25 0 28 0;
#X connect 26 0 24 0;
#X connect 27 0 30 0;
#X connect 28 0 31 0;
#X connect 29 0 23 0;
#X connect 32 0 33 0;
#X connect 33 0 21 0;
#X connect 33 1 22 0;
#X connect 34 0 21 0;
#X connect 34 1 22 0;
#X connect 35 0 34 0;
#X connect 40 0 2 0;
#X connect 40 1 5 0;
#X connect 41 0 40 0;
#X connect 42 0 43 0;
#X connect 43 0 1 0;
#X connect 43 1 4 0;
#X connect 44 0 42 0;
#X restore 4 264 pd stage 1;
#N canvas 316 193 910 459 stage 1;
#X obj 14 151 readsf~;
#X obj 60 108 bng 15 250 50 0 empty empty empty 17 7 0 10 -262144 -1
-1;
#X msg 14 123 open ./instrumento_fiducial/1-IF.wav \, start;
#X obj 13 380 throw~;
#X obj 14 68 r use-if-1;
#X msg 14 6 stop;
#X obj 14 36 t a a, f 99;
#X obj 14 -20 r reset-all;
#X obj 14 445 cnv 15 154 103 empty empty empty 20 12 0 14 -233017 -66577
0;
#X obj 18 460 hsl 128 15 0 1 0 0 2-rot 2-rot 2-rot 0 -8 0 10 -260888
-1 -1 12093 1;
#X obj 18 500 hsl 128 15 0 1 0 0 3-rot 3-rot 3-rot 0 -8 0 10 -260888
-1 -1 9379 1;
#X floatatom 149 177 5 0 1 0 2-rot 2-rot -, f 5;
#X obj 15 282 freeverb~;
#X msg 149 261 wet \$1;
#X obj 149 205 t f f, f 13;
#X obj 704 151 readsf~;
#X obj 750 108 bng 15 250 50 0 empty empty empty 17 7 0 10 -262144
-1 -1;
#X floatatom 839 177 5 0 1 0 3-rot 3-rot -, f 5;
#X obj 839 205 t f f, f 13;
#X obj 704 68 r use-if-2;
#X msg 704 123 open ./instrumento_fiducial/2-IF.wav \, start;
#X msg 237 261 dry \$1;
#X obj 702 380 throw~;
#X obj 704 282 freeverb~;
#X msg 837 261 wet \$1;
#X msg 925 261 dry \$1;
#X msg 374 261 roomsize \$1;
#X obj 374 227 hsl 128 15 0 1 0 0 empty empty empty -2 -8 0 10 -262144
-1 -1 2936 1;
#X obj 375 197 r filter;
#X obj 237 232 expr 1 - $f1;
#X msg 1058 261 roomsize \$1;
#X obj 1058 227 hsl 128 15 0 1 0 0 empty empty empty -2 -8 0 10 -262144
-1 -1 0 1;
#X obj 1059 197 r filter;
#X obj 925 232 expr 1 - $f1;
#X connect 0 0 12 0;
#X connect 0 0 12 1;
#X connect 0 1 1 0;
#X connect 1 0 2 0;
#X connect 2 0 0 0;
#X connect 4 0 2 0;
#X connect 5 0 6 0;
#X connect 6 0 0 0;
#X connect 6 1 15 0;
#X connect 7 0 5 0;
#X connect 11 0 14 0;
#X connect 12 0 3 0;
#X connect 12 1 3 0;
#X connect 13 0 12 0;
#X connect 14 0 13 0;
#X connect 14 1 29 0;
#X connect 15 0 23 0;
#X connect 15 1 16 0;
#X connect 16 0 20 0;
#X connect 17 0 18 0;
#X connect 18 0 24 0;
#X connect 18 1 33 0;
#X connect 19 0 20 0;
#X connect 20 0 15 0;
#X connect 21 0 12 0;
#X connect 23 0 22 0;
#X connect 23 1 22 0;
#X connect 24 0 23 0;
#X connect 25 0 23 0;
#X connect 26 0 12 0;
#X connect 27 0 26 0;
#X connect 28 0 27 0;
#X connect 29 0 21 0;
#X connect 30 0 23 0;
#X connect 31 0 30 0;
#X connect 32 0 31 0;
#X connect 33 0 25 0;
#X restore 87 264 pd stage 2;
#X obj 4 37 dumpOSC 9007;
#X obj 4 70 OSCroute /id;
#X obj 2 323 output~;
#X obj 2 303 catch~;
#X obj 4 95 OSCroute /1 /2 /3, f 86;
#N canvas 0 29 632 557 id-1 0;
#X obj 8 10 inlet;
#X floatatom 8 337 5 0 0 0 - - -, f 5;
#X floatatom 89 337 5 0 0 0 - - -, f 5;
#X obj 8 287 unpack f f, f 12;
#X obj 228 209 metro 1000;
#X obj 228 234 cup;
#X floatatom 228 259 5 0 0 0 - - -, f 5;
#X obj 258 194 tgl 15 0 empty empty empty 17 7 0 10 -204800 -1 -1 0
1;
#X obj 8 95 t a a;
#X obj 228 115 bng 15 250 50 0 empty empty empty 17 7 0 10 -262144
-1 -1;
#X msg 228 165 0;
#X obj 8 246 spigot;
#X obj 228 283 sel 10;
#X obj 47 224 nbx 2 18 -1e+37 1e+37 0 0 empty empty empty 0 -8 0 15
-204800 -16662 -4160 0 256 0;
#X obj 228 339 s start-stage-2;
#X obj 322 324 bng 15 250 50 0 empty empty empty 17 7 0 10 -262144
-1 -1;
#X obj 8 66 OSCroute /pos;
#N canvas 661 360 450 346 one-time-bang-1 1;
#X obj 19 58 spigot, f 7;
#X obj 19 87 t b b, f 9;
#X obj 79 125 s toggle-1;
#X obj 65 1 r toggle-1;
#X obj 19 24 inlet;
#X obj 19 116 outlet;
#X obj 65 30 tgl 15 0 empty reset-1 empty 17 7 0 10 -262144 -1 -1 1
1;
#X obj 170 10 loadbang;
#X obj 263 10 r 1-pass?;
#X connect 0 0 1 0;
#X connect 1 0 5 0;
#X connect 1 1 2 0;
#X connect 3 0 6 0;
#X connect 4 0 0 0;
#X connect 6 0 0 1;
#X connect 7 0 6 0;
#X connect 8 0 6 0;
#X restore 323 167 pd one-time-bang-1;
#X obj 228 139 t b b, f 14;
#X obj 323 196 bng 15 250 50 0 empty empty empty 17 7 0 10 -262144
-1 -1;
#X obj 47 174 tgl 15 0 empty empty empty 17 7 0 10 -262144 -1 -1 0
1;
#X obj 323 220 s 1-bang;
#X obj 47 154 r 1-bang;
#X obj 153 174 spigot;
#X obj 192 141 tgl 15 0 empty empty empty 17 7 0 10 -262144 -1 -1 1
1;
#X obj 192 43 loadbang;
#X obj 192 78 r stop-metro-1;
#X connect 0 0 16 0;
#X connect 3 0 1 0;
#X connect 3 1 2 0;
#X connect 4 0 5 0;
#X connect 5 0 6 0;
#X connect 6 0 12 0;
#X connect 7 0 4 0;
#X connect 8 0 11 0;
#X connect 8 1 9 0;
#X connect 9 0 18 0;
#X connect 10 0 5 0;
#X connect 11 0 3 0;
#X connect 12 0 14 0;
#X connect 13 0 11 1;
#X connect 15 0 14 0;
#X connect 16 0 8 0;
#X connect 17 0 19 0;
#X connect 18 0 10 0;
#X connect 18 1 17 0;
#X connect 19 0 21 0;
#X connect 20 0 13 0;
#X connect 22 0 20 0;
#X connect 22 0 23 0;
#X connect 23 0 7 0;
#X connect 24 0 23 1;
#X connect 25 0 24 0;
#X connect 26 0 24 0;
#X restore 4 120 pd id-1;
#N canvas 0 29 546 395 id-2 1;
#X obj 7 73 spigot, f 8;
#X obj 60 51 nbx 2 18 -1e+37 1e+37 0 0 empty 2-pass? empty 0 -8 0 15
-240319 -16662 -4160 0 256 0;
#X obj 166 236 metro 1000;
#X obj 166 261 cup;
#X floatatom 166 286 5 0 0 0 - - -, f 5;
#X obj 196 221 tgl 15 0 empty stop-metro-2 empty 17 7 0 10 -259955
-1 -1 0 1;
#X obj 166 122 bng 15 250 50 0 empty empty empty 17 7 0 10 -262144
-1 -1;
#X msg 166 180 0;
#X obj 166 310 sel 10;
#X obj 166 340 s start-stage-3;
#X obj 261 325 bng 15 250 50 0 empty empty empty 17 7 0 10 -262144
-1 -1;
#X obj 166 146 t b b, f 17;
#X obj 282 206 bng 15 250 50 0 empty empty empty 17 7 0 10 -262144
-1 -1;
#N canvas 220 251 450 415 one-time-bang-2 0;
#X obj 8 91 spigot, f 7;
#X obj 8 120 t b b, f 9;
#X obj 8 57 inlet;
#X obj 8 149 outlet;
#X obj 54 63 tgl 15 0 empty reset-1 empty 17 7 0 10 -262144 -1 -1 0
1;
#X obj 54 34 r toggle-2;
#X obj 68 158 s toggle-2;
#X obj 175 43 r 2-pass?;
#X connect 0 0 1 0;
#X connect 1 0 3 0;
#X connect 1 1 6 0;
#X connect 2 0 0 0;
#X connect 4 0 0 1;
#X connect 5 0 4 0;
#X connect 7 0 4 0;
#X restore 282 176 pd one-time-bang-2;
#X obj 7 -4 inlet;
#X obj 7 102 t a a;
#X obj 282 230 s use-if-1;
#X obj 7 23 OSCroute /rot;
#X obj 7 198 unpack f, f 9;
#X obj 7 227 abs;
#X obj 7 314 s 2-rot;
#X obj 7 256 / 3.141;
#X connect 0 0 15 0;
#X connect 1 0 0 1;
#X connect 2 0 3 0;
#X connect 3 0 4 0;
#X connect 4 0 8 0;
#X connect 5 0 2 0;
#X connect 6 0 11 0;
#X connect 7 0 3 0;
#X connect 8 0 9 0;
#X connect 10 0 9 0;
#X connect 11 0 7 0;
#X connect 11 1 13 0;
#X connect 12 0 5 0;
#X connect 12 0 16 0;
#X connect 13 0 12 0;
#X connect 14 0 17 0;
#X connect 15 0 18 0;
#X connect 15 1 6 0;
#X connect 17 0 0 0;
#X connect 18 0 19 0;
#X connect 19 0 21 0;
#X connect 21 0 20 0;
#X restore 203 120 pd id-2;
#X obj 5 184 s reset-1;
#X msg 5 156 1;
#X msg 412 462 0;
#X obj 412 487 s stop-metro-2;
#X obj 206 288 t b b b, f 25;
#X msg 378 313 0;
#X obj 378 338 s 1-bang;
#X obj 11 490 s reset-all;
#X obj 11 458 bng 15 250 50 0 empty empty empty 17 7 0 10 -262144 -1
-1;
#X obj 11 516 r reset-all;
#X obj 11 594 s 1-pass?;
#X obj 103 594 s 2-pass?;
#X msg 195 569 0;
#X obj 195 594 s 1-bang;
#X msg 287 600 0;
#X msg 103 569 0;
#X obj 287 625 s stop-metro-2;
#X msg 11 569 1;
#X obj 204 401 t b b b b, f 45;
#X msg 516 427 0;
#X obj 516 456 s stop-metro-1;
#X obj 11 544 t b b b b b, f 53;
#X obj 379 599 s stop-metro-1;
#X msg 379 570 1;
#N canvas 459 145 546 372 id-3 1;
#X obj 7 73 spigot, f 8;
#X obj 60 51 nbx 2 18 -1e+37 1e+37 0 0 empty 2-pass? empty 0 -8 0 15
-240319 -16662 -4160 1 256 0;
#X obj 166 236 metro 1000;
#X obj 166 261 cup;
#X floatatom 166 286 5 0 0 0 - - -, f 5;
#X obj 196 221 tgl 15 0 empty stop-metro-2 empty 17 7 0 10 -259955
-1 -1 1 1;
#X obj 166 122 bng 15 250 50 0 empty empty empty 17 7 0 10 -262144
-1 -1;
#X msg 166 180 0;
#X obj 166 310 sel 10;
#X obj 166 340 s start-stage-3;
#X obj 261 325 bng 15 250 50 0 empty empty empty 17 7 0 10 -262144
-1 -1;
#X obj 166 146 t b b, f 17;
#X obj 282 206 bng 15 250 50 0 empty empty empty 17 7 0 10 -262144
-1 -1;
#N canvas 220 251 450 415 one-time-bang-2 0;
#X obj 8 91 spigot, f 7;
#X obj 8 120 t b b, f 9;
#X obj 8 57 inlet;
#X obj 8 149 outlet;
#X obj 54 63 tgl 15 0 empty reset-1 empty 17 7 0 10 -262144 -1 -1 0
1;
#X obj 54 34 r toggle-2;
#X obj 68 158 s toggle-2;
#X obj 175 43 r 2-pass?;
#X connect 0 0 1 0;
#X connect 1 0 3 0;
#X connect 1 1 6 0;
#X connect 2 0 0 0;
#X connect 4 0 0 1;
#X connect 5 0 4 0;
#X connect 7 0 4 0;
#X restore 282 176 pd one-time-bang-2;
#X obj 7 -4 inlet;
#X obj 7 102 t a a;
#X obj 7 23 OSCroute /rot;
#X obj 7 198 unpack f, f 9;
#X obj 7 227 abs;
#X obj 282 230 s use-if-2;
#X obj 7 284 s 3-rot;
#X obj 7 256 / 3.141;
#X connect 0 0 15 0;
#X connect 1 0 0 1;
#X connect 2 0 3 0;
#X connect 3 0 4 0;
#X connect 4 0 8 0;
#X connect 5 0 2 0;
#X connect 6 0 11 0;
#X connect 7 0 3 0;
#X connect 8 0 9 0;
#X connect 10 0 9 0;
#X connect 11 0 7 0;
#X connect 11 1 13 0;
#X connect 12 0 5 0;
#X connect 12 0 19 0;
#X connect 13 0 12 0;
#X connect 14 0 16 0;
#X connect 15 0 17 0;
#X connect 15 1 6 0;
#X connect 16 0 0 0;
#X connect 17 0 18 0;
#X connect 18 0 21 0;
#X connect 21 0 20 0;
#X restore 403 120 pd id-3;
#X connect 0 0 23 0;
#X connect 1 0 3 0;
#X connect 2 0 4 0;
#X connect 7 0 37 0;
#X connect 8 0 5 0;
#X connect 9 0 6 0;
#X connect 12 0 13 0;
#X connect 13 0 16 0;
#X connect 15 0 14 0;
#X connect 15 0 14 1;
#X connect 16 0 17 0;
#X connect 16 1 18 0;
#X connect 16 2 43 0;
#X connect 20 0 19 0;
#X connect 21 0 22 0;
#X connect 23 0 1 0;
#X connect 23 1 2 0;
#X connect 23 2 24 0;
#X connect 24 0 25 0;
#X connect 27 0 26 0;
#X connect 28 0 40 0;
#X connect 31 0 32 0;
#X connect 33 0 35 0;
#X connect 34 0 30 0;
#X connect 36 0 29 0;
#X connect 37 0 8 0;
#X connect 37 1 9 0;
#X connect 37 2 21 0;
#X connect 37 3 38 0;
#X connect 38 0 39 0;
#X connect 40 0 36 0;
#X connect 40 1 34 0;
#X connect 40 2 31 0;
#X connect 40 3 33 0;
#X connect 40 4 42 0;
#X connect 42 0 41 0;
