#N canvas 0 29 1920 990 12;
#X obj 847 787 output~;
#X obj 847 637 catch~;
#X obj 11 830 s reset-all;
#X obj 11 768 bng 15 250 50 0 empty empty empty 17 7 0 10 -262144 -1
-1;
#X obj 4 6 mrpeach/udpreceive 9007;
#X obj 4 37 mrpeach/unpackOSC;
#X obj 4 70 mrpeach/routeOSC /id;
#X obj 4 95 mrpeach/routeOSC /1 /2 /3, f 169;
#N canvas 0 29 1920 990 value-routing 0;
#X obj 46 40 inlet;
#X floatatom 46 325 5 0 0 0 - - -, f 5;
#X floatatom 127 325 5 0 0 0 - - -, f 5;
#X obj 46 275 unpack f f, f 12;
#X obj 46 110 mrpeach/routeOSC /pos /rot, f 47;
#X floatatom 209 185 5 0 0 0 - - -, f 5;
#X obj 209 155 unpack f;
#X obj 209 215 abs;
#X obj 209 244 / 3.141;
#X obj 406 40 inlet;
#X floatatom 406 325 5 0 0 0 - - -, f 5;
#X floatatom 487 325 5 0 0 0 - - -, f 5;
#X obj 406 275 unpack f f, f 12;
#X obj 406 110 mrpeach/routeOSC /pos /rot, f 47;
#X floatatom 569 185 5 0 0 0 - - -, f 5;
#X obj 569 155 unpack f;
#X obj 569 215 abs;
#X obj 569 244 / 3.141;
#X obj 766 40 inlet;
#X floatatom 766 325 5 0 0 0 - - -, f 5;
#X floatatom 847 325 5 0 0 0 - - -, f 5;
#X obj 766 275 unpack f f, f 12;
#X obj 766 110 mrpeach/routeOSC /pos /rot, f 47;
#X floatatom 929 185 5 0 0 0 - - -, f 5;
#X obj 929 155 unpack f;
#X obj 929 215 abs;
#X obj 929 244 / 3.141;
#X connect 0 0 4 0;
#X connect 3 0 1 0;
#X connect 3 1 2 0;
#X connect 4 0 3 0;
#X connect 4 1 6 0;
#X connect 5 0 7 0;
#X connect 6 0 5 0;
#X connect 7 0 8 0;
#X connect 9 0 13 0;
#X connect 12 0 10 0;
#X connect 12 1 11 0;
#X connect 13 0 12 0;
#X connect 13 1 15 0;
#X connect 14 0 16 0;
#X connect 15 0 14 0;
#X connect 16 0 17 0;
#X connect 18 0 22 0;
#X connect 21 0 19 0;
#X connect 21 1 20 0;
#X connect 22 0 21 0;
#X connect 22 1 24 0;
#X connect 23 0 25 0;
#X connect 24 0 23 0;
#X connect 25 0 26 0;
#X restore 3 647 pd value-routing, f 113;
#X obj 4 185 aruco, f 7;
#X obj 134 191 bng 31 250 50 0 id1-loadbang empty ID1-BANG 34 22 0
10 -159680 -1 -1;
#X obj 233 410 bng 31 250 50 0 start-stage-2 empty To\ stage\ 2! 33
20 0 12 -159680 -1 -1;
#X obj 397 184 aruco, f 7;
#X obj 790 184 aruco, f 7;
#X obj 626 408 bng 31 250 50 0 start-stage-3 empty To\ stage\ 3! 33
20 0 12 -236031 -1 -1;
#X obj 1019 408 bng 31 250 50 0 start-stage-3 empty To\ stage\ 3! 33
20 0 12 -236031 -1 -1;
#X obj 524 191 bng 31 250 50 0 id2-loadbang empty ID2-BANG 34 22 0
10 -159680 -1 -1;
#X obj 918 191 bng 31 250 50 0 id3-loadbang empty ID3-BANG 34 22 0
10 -159680 -1 -1;
#X obj 233 454 t b b;
#X obj 225 165 r id1;
#X msg 658 483 symbol 100;
#X obj 626 454 t b b;
#X obj 626 566 s id1;
#X obj 618 164 r id2;
#X obj 265 512 s id1;
#X obj 658 512 s id2;
#X obj 1011 164 r id3;
#X msg 1051 483 symbol 100;
#X obj 1019 454 t b b;
#X obj 1019 580 s id1;
#X msg 1019 537 symbol o11;
#X obj 11 792 t b b, f 21;
#X obj 558 723 bng 15 250 50 0 empty empty empty 17 7 0 10 -262144
-1 -1;
#X obj 558 805 s id2;
#X obj 558 776 t a a, f 11;
#X obj 632 805 s id3;
#X obj 558 689 loadbang;
#X msg 558 747 symbol cant-start;
#X msg 233 537 symbol 100;
#X obj 233 595 s id2;
#X obj 286 595 s id3;
#X obj 233 566 t a a, f 8;
#X obj 155 830 t b b, f 16;
#X msg 155 859 symbol 100;
#X obj 155 888 s id1;
#X obj 264 888 t a a, f 9;
#X obj 264 917 s id2;
#X msg 264 859 symbol 100 \, symbol cant-start;
#X obj 324 917 s id3;
#X obj 1089 200 r id2-loadbang;
#X msg 1089 229 symbol cant-start;
#X obj 1089 287 s id3;
#X obj 1089 258 t a;
#X msg 1229 229 symbol cant-start;
#X obj 1229 258 t a;
#X obj 1229 200 r id3-loadbang;
#X obj 1229 287 s id2;
#X obj 1051 512 s id3;
#X msg 264 483 symbol 100 \, symbol cant-start;
#X msg 626 537 symbol can-start \, symbol o11;
#X obj 942 651 audio_pan;
#X obj 847 696 *~;
#X obj 890 696 *~;
#N canvas 134 125 1280 642 effect 0;
#X obj 248 266 expr~ ($v1 * $f3) + ($v2 * $f4), f 38;
#X obj 248 295 throw~;
#X obj 423 60 r pan-AB;
#X obj 423 89 t f f, f 13;
#X obj 423 118 expr 1 - $f1;
#X obj 423 158 vsl 15 60 0 1 0 0 empty empty empty 0 -9 0 10 -262144
-1 -1 2579 1;
#X obj 511 158 vsl 15 60 0 1 0 0 empty empty empty 0 -9 0 10 -262144
-1 -1 3321 1;
#X obj 251 130 freeverb~;
#X obj 328 130 freeverb~;
#X obj 561 89 t f f, f 22;
#X floatatom 561 147 5 0 0 0 - - -, f 5;
#X floatatom 712 147 5 0 0 0 - - -, f 5;
#X obj 561 118 expr 1 - ($f1 / 2);
#X msg 561 175 dry \$1;
#X msg 712 175 wet \$1;
#X obj 561 60 r filter;
#X obj 561 204 s dry;
#X obj 712 204 s wet;
#X obj 257 51 r dry;
#X obj 257 80 t a a;
#X obj 324 79 t a a;
#X obj 324 50 r wet;
#X obj 24 110 inlet~;
#X obj 74 110 inlet~;
#X obj 14 490 cnv 15 151 106 empty empty empty 20 12 0 14 -231847 -66577
0;
#X obj 17 147 grid grid1 200 0 199 200 0 199 1 1 1 10 10 130 244;
#X obj 17 356 / 199;
#X obj 210 356 / 199;
#X floatatom 17 385 5 0 0 0 - - -, f 5;
#X floatatom 210 385 5 0 0 0 - - -, f 5;
#X obj 17 443 s pan-AB;
#X obj 210 443 s filter;
#X obj 20 519 hsl 128 15 0 1 0 0 pan-AB pan-AB empty -2 -8 0 10 -262144
-1 -1 7148 1;
#X obj 20 569 hsl 128 15 0 1 0 0 filter filter empty -2 -8 0 10 -262144
-1 -1 6510 1;
#X text 18 493 pan-AB;
#X text 18 543 filter;
#X obj 17 413 t f f, f 12;
#X obj 98 442 s x;
#X obj 210 413 t f f, f 12;
#X obj 291 442 s y;
#X connect 0 0 1 0;
#X connect 2 0 3 0;
#X connect 3 0 4 0;
#X connect 3 1 6 0;
#X connect 4 0 5 0;
#X connect 5 0 0 2;
#X connect 6 0 0 3;
#X connect 7 0 0 0;
#X connect 7 1 0 0;
#X connect 8 0 0 1;
#X connect 8 1 0 1;
#X connect 9 0 12 0;
#X connect 9 1 11 0;
#X connect 10 0 13 0;
#X connect 11 0 14 0;
#X connect 12 0 10 0;
#X connect 13 0 16 0;
#X connect 14 0 17 0;
#X connect 15 0 9 0;
#X connect 18 0 19 0;
#X connect 19 0 7 0;
#X connect 19 1 8 0;
#X connect 20 0 7 0;
#X connect 20 1 8 0;
#X connect 21 0 20 0;
#X connect 22 0 7 0;
#X connect 22 0 7 1;
#X connect 23 0 8 0;
#X connect 23 0 8 1;
#X connect 25 0 26 0;
#X connect 25 1 27 0;
#X connect 26 0 28 0;
#X connect 27 0 29 0;
#X connect 28 0 36 0;
#X connect 29 0 38 0;
#X connect 36 0 30 0;
#X connect 36 1 37 0;
#X connect 38 0 31 0;
#X connect 38 1 39 0;
#X restore 2 720 pd effect, f 10;
#N canvas 404 213 872 600 ambient 0;
#X obj 35 141 readsf~;
#X obj 81 98 bng 15 250 50 0 empty empty empty 17 7 0 10 -262144 -1
-1;
#X msg 35 113 open ./ambiente/A-ambiente.wav \, start;
#X obj 123 181 readsf~;
#X obj 169 138 bng 15 250 50 0 empty empty empty 17 7 0 10 -262144
-1 -1;
#X msg 123 153 open ./ambiente/B-ambiente.wav \, start;
#X obj 81 33 t b b, f 13;
#X msg 35 40 stop;
#X obj 35 71 t a a, f 13;
#X obj 35 -22 r reset-all;
#X obj 81 4 r id1-loadbang;
#X obj 35 170 outlet~;
#X obj 123 210 outlet~;
#X connect 0 0 11 0;
#X connect 0 1 1 0;
#X connect 1 0 2 0;
#X connect 2 0 0 0;
#X connect 3 0 12 0;
#X connect 3 1 4 0;
#X connect 4 0 5 0;
#X connect 5 0 3 0;
#X connect 6 0 1 0;
#X connect 6 1 4 0;
#X connect 7 0 8 0;
#X connect 8 0 0 0;
#X connect 8 1 3 0;
#X connect 9 0 7 0;
#X connect 10 0 6 0;
#X restore 2 687 pd ambient;
#N canvas 0 29 1920 990 sequences 0;
#X obj 14 151 readsf~;
#X obj 60 108 bng 15 250 50 0 empty empty empty 17 7 0 10 -262144 -1
-1;
#X msg 14 123 open ./instrumento_fiducial/1-IF.wav \, start;
#X msg 14 6 stop;
#X obj 14 36 t a a, f 99;
#X obj 14 -20 r reset-all;
#X obj 704 151 readsf~;
#X obj 750 108 bng 15 250 50 0 empty empty empty 17 7 0 10 -262144
-1 -1;
#X msg 704 123 open ./instrumento_fiducial/2-IF.wav \, start;
#X obj 14 68 r id2-loadbang;
#X obj 704 68 r id3-loadbang;
#X obj 14 180 outlet~;
#X obj 704 180 outlet~;
#X connect 0 0 11 0;
#X connect 0 1 1 0;
#X connect 1 0 2 0;
#X connect 2 0 0 0;
#X connect 3 0 4 0;
#X connect 4 0 0 0;
#X connect 4 1 6 0;
#X connect 5 0 3 0;
#X connect 6 0 12 0;
#X connect 6 1 7 0;
#X connect 7 0 8 0;
#X connect 8 0 6 0;
#X connect 9 0 2 0;
#X connect 10 0 8 0;
#X restore 85 687 pd sequences, f 14;
#N canvas 488 240 1280 658 seq-effects 0;
#X obj 11 240 throw~;
#X floatatom 147 37 5 0 1 0 2-rot 2-rot -, f 5;
#X obj 13 142 freeverb~;
#X msg 147 121 wet \$1;
#X obj 147 65 t f f, f 13;
#X floatatom 686 33 5 0 1 0 3-rot 3-rot -, f 5;
#X obj 686 61 t f f, f 13;
#X msg 235 121 dry \$1;
#X obj 549 236 throw~;
#X obj 551 138 freeverb~;
#X msg 684 117 wet \$1;
#X msg 772 117 dry \$1;
#X msg 372 121 roomsize \$1;
#X obj 372 87 hsl 128 15 0 1 0 0 empty empty empty -2 -8 0 10 -262144
-1 -1 6510 1;
#X obj 373 57 r filter;
#X obj 235 92 expr 1 - $f1;
#X msg 905 117 roomsize \$1;
#X obj 905 83 hsl 128 15 0 1 0 0 empty empty empty -2 -8 0 10 -262144
-1 -1 6510 1;
#X obj 906 53 r filter;
#X obj 772 88 expr 1 - $f1;
#X obj 13 93 inlet~;
#X obj 551 87 inlet~;
#X obj 14 315 cnv 15 154 103 empty empty empty 20 12 0 14 -233017 -66577
0;
#X obj 18 330 hsl 128 15 0 1 0 0 2-rot 2-rot 2-rot 0 -8 0 10 -260888
-1 -1 0 1;
#X obj 18 370 hsl 128 15 0 1 0 0 3-rot 3-rot 3-rot 0 -8 0 10 -260888
-1 -1 0 1;
#X connect 1 0 4 0;
#X connect 2 0 0 0;
#X connect 2 1 0 0;
#X connect 3 0 2 0;
#X connect 4 0 3 0;
#X connect 4 1 15 0;
#X connect 5 0 6 0;
#X connect 6 0 10 0;
#X connect 6 1 19 0;
#X connect 7 0 2 0;
#X connect 9 0 8 0;
#X connect 9 1 8 0;
#X connect 10 0 9 0;
#X connect 11 0 9 0;
#X connect 12 0 2 0;
#X connect 13 0 12 0;
#X connect 14 0 13 0;
#X connect 15 0 7 0;
#X connect 16 0 9 0;
#X connect 17 0 16 0;
#X connect 18 0 17 0;
#X connect 19 0 11 0;
#X connect 20 0 2 0;
#X connect 20 0 2 1;
#X connect 21 0 9 0;
#X connect 21 0 9 1;
#X restore 85 724 pd seq-effects;
#X connect 1 0 61 0;
#X connect 1 0 62 0;
#X connect 3 0 31 0;
#X connect 4 0 5 0;
#X connect 5 0 6 0;
#X connect 6 0 7 0;
#X connect 7 0 9 0;
#X connect 7 1 12 0;
#X connect 7 2 13 0;
#X connect 9 0 8 0;
#X connect 9 1 10 0;
#X connect 9 2 11 0;
#X connect 11 0 18 0;
#X connect 12 0 8 1;
#X connect 12 1 16 0;
#X connect 12 2 14 0;
#X connect 13 0 8 2;
#X connect 13 1 17 0;
#X connect 13 2 15 0;
#X connect 14 0 21 0;
#X connect 15 0 28 0;
#X connect 18 0 38 0;
#X connect 18 1 58 0;
#X connect 19 0 9 1;
#X connect 20 0 25 0;
#X connect 21 0 59 0;
#X connect 21 1 20 0;
#X connect 23 0 12 1;
#X connect 26 0 13 1;
#X connect 27 0 57 0;
#X connect 28 0 30 0;
#X connect 28 1 27 0;
#X connect 30 0 29 0;
#X connect 31 0 2 0;
#X connect 31 1 42 0;
#X connect 32 0 37 0;
#X connect 34 0 33 0;
#X connect 34 1 35 0;
#X connect 36 0 32 0;
#X connect 37 0 34 0;
#X connect 38 0 41 0;
#X connect 41 0 39 0;
#X connect 41 1 40 0;
#X connect 42 0 43 0;
#X connect 42 1 47 0;
#X connect 43 0 44 0;
#X connect 45 0 46 0;
#X connect 45 1 48 0;
#X connect 47 0 45 0;
#X connect 49 0 50 0;
#X connect 50 0 52 0;
#X connect 52 0 51 0;
#X connect 53 0 54 0;
#X connect 54 0 56 0;
#X connect 55 0 53 0;
#X connect 58 0 24 0;
#X connect 59 0 22 0;
#X connect 60 0 61 1;
#X connect 60 1 62 1;
#X connect 61 0 0 0;
#X connect 62 0 0 1;
#X connect 64 0 63 0;
#X connect 64 1 63 1;
#X connect 65 0 66 0;
#X connect 65 1 66 1;
