#N canvas 1067 335 450 300 10;
#X obj 157 55 inlet;
#X obj 157 110 sel \$1;
#X obj 157 83 f;
#X msg 158 141 0;
#X msg 195 141 1;
#X obj 157 170 tgl 15 0 empty empty empty 17 7 0 10 -262144 -1 -1 0
1;
#X obj 119 217 outlet;
#X obj 121 55 inlet;
#X obj 121 192 spigot;
#X connect 0 0 2 0;
#X connect 1 0 4 0;
#X connect 1 1 3 0;
#X connect 2 0 1 0;
#X connect 3 0 5 0;
#X connect 4 0 5 0;
#X connect 5 0 8 1;
#X connect 7 0 8 0;
#X connect 8 0 6 0;
